<svg width="200" height="195" viewBox="0 0 200 195" fill="none" xmlns="http://www.w3.org/2000/svg">
<path d="M2.00001 97.5444C1.97543 43.6966 45.6077 0.0245454 99.4555 8.2723e-06C153.303 -0.0245288 196.975 43.6077 197 97.4553C197.025 151.303 153.393 194.976 99.5445 195C45.6968 195.025 2.02455 151.392 2.00001 97.5444Z" fill="#C9F001"/>
<path d="M99.7907 117.731L142.779 145.945L142.746 74.4191L118.687 90.0873L99.7907 38.0965L80.942 90.0905L56.869 74.4191L56.9015 145.947L99.7907 117.731Z" fill="#101820"/>
<path d="M112.624 17.524L114.771 8.80968L118.565 9.74447L119.794 15.799L123.753 11.0224L127.361 11.9105L125.215 20.6248L122.474 19.9495L123.845 14.3862L119.862 19.3066L117.918 18.8275L116.688 12.6239L115.318 18.1873L112.624 17.524Z" fill="#101820"/>
<path d="M134.831 14.7941L135.33 15.0084C139.453 16.7807 139.465 19.5303 138.712 21.2814L138.569 21.6139C137.826 23.3423 135.804 25.2961 131.671 23.5186L131.172 23.3043C127.05 21.532 127.066 18.7157 127.809 16.9872L127.952 16.6547C128.705 14.9038 130.709 13.0214 134.831 14.7941ZM135.853 20.3276L135.915 20.1836C136.301 19.2858 136.394 17.908 134.2 16.9646C131.995 16.0164 131.059 17.0322 130.673 17.93L130.611 18.0739C130.226 18.9713 130.162 20.4014 132.323 21.3308C134.517 22.2743 135.467 21.2254 135.853 20.3276Z" fill="#101820"/>
<path d="M142.619 29.3042L142.148 29.011C138.43 26.6972 138.975 23.8818 139.925 22.356L140.116 22.049C141.079 20.5024 143.316 18.826 147.043 21.1462L147.514 21.4395C151.119 23.6831 150.945 25.948 150.092 27.32L150.059 27.371L147.54 25.8032C147.63 25.5898 148.043 24.4252 146.087 23.2077C144.284 22.0862 143.169 22.8272 142.622 23.7076L142.539 23.8407C142.022 24.6702 141.796 26.1068 143.599 27.2284C145.554 28.4455 146.413 27.5455 146.571 27.36L149.09 28.928L149.052 28.9897C148.25 30.2798 146.244 31.561 142.619 29.3042Z" fill="#101820"/>
<path d="M153.141 36.9976L152.714 31.2729L150.072 34.425L147.872 32.5807L153.637 25.7028L155.837 27.5471L153.536 30.2925L158.86 30.0802L161.54 32.3278L155.437 32.5316L155.97 39.3684L153.141 36.9976Z" fill="#101820"/>
<path d="M166.271 37.2366L166.633 37.6411C169.628 40.9824 168.482 43.4828 167.064 44.7541L166.793 44.996C165.392 46.2515 162.736 47.1733 159.734 43.8231L159.372 43.4186C156.377 40.076 157.576 37.5286 158.978 36.273L159.248 36.0311C160.667 34.7598 163.277 33.8948 166.271 37.2366ZM164.87 42.6863L164.987 42.5817C165.715 41.9297 166.379 40.719 164.786 38.9404C163.183 37.153 161.907 37.6806 161.18 38.3325L161.063 38.4372C160.335 39.0891 159.677 40.3599 161.246 42.1115C162.84 43.8904 164.143 43.3383 164.87 42.6863Z" fill="#101820"/>
<path d="M164.294 48.9099L171.793 43.9803L175.656 49.857C177.067 52.0033 176.581 53.1751 175.694 53.7581L175.604 53.8176C174.625 54.4605 173.619 53.895 173.168 53.3838C173.573 54.2859 173.766 55.589 172.505 56.4174L172.404 56.4833C171.276 57.2253 169.767 57.2359 168.17 54.807L164.294 48.9099ZM173.634 50.4062L171.713 47.4833L170.504 48.2775L172.426 51.2012C172.823 51.8058 173.205 51.8149 173.537 51.5965L173.557 51.5832C173.91 51.3511 174.032 51.0103 173.634 50.4062ZM170.999 52.4131L168.952 49.2978L167.621 50.1731L169.668 53.2877C170.146 54.0137 170.604 53.9426 170.927 53.731L170.967 53.7045C171.3 53.4857 171.476 53.1384 170.999 52.4131Z" fill="#101820"/>
<path d="M172.819 63.7609L172.583 63.2585C170.721 59.2955 172.707 57.2284 174.334 56.4641L174.662 56.3098C176.31 55.5354 179.099 55.3441 180.967 59.3182L181.202 59.8198C183.009 63.6629 181.632 65.4698 180.169 66.1569L180.115 66.183L178.852 63.4969C179.044 63.3672 180.024 62.6136 179.043 60.5287C178.141 58.6073 176.801 58.6235 175.863 59.0643L175.721 59.1313C174.836 59.5465 173.866 60.6295 174.769 62.5504C175.749 64.6357 176.959 64.347 177.193 64.2771L178.456 66.9619L178.39 66.9937C177.014 67.64 174.635 67.6251 172.819 63.7609Z" fill="#101820"/>
<path d="M177.453 75.8161L180.184 70.7667L176.257 71.9942L175.4 69.2539L183.966 66.5758L184.823 69.3161L181.403 70.3848L186 73.0806L187.044 76.4185L181.796 73.2953L178.554 79.3395L177.453 75.8161Z" fill="#101820"/>
<path d="M183.039 85.2289L186.099 83.1924L182.55 82.2899L183.039 85.2289ZM179.811 87.3675L181.231 86.4225L180.455 81.7462L178.807 81.323L178.334 78.4795L187.855 81.0294L188.478 84.7772L180.315 90.4019L179.811 87.3675Z" fill="#101820"/>
<path d="M183.354 98.4095L183.316 96.528L180.327 93.7419L180.257 90.293L183.577 93.3982C183.795 91.6563 184.693 90.673 186.2 90.6427L186.321 90.6396C187.972 90.6062 189.265 91.8469 189.316 94.3547L189.454 101.169L180.482 101.352L180.423 98.4691L183.354 98.4095ZM185.513 98.3658L187.249 98.3308L187.177 94.773C187.162 94.013 186.877 93.6446 186.309 93.6564L186.285 93.6564C185.707 93.6687 185.425 94.0847 185.44 94.8084L185.513 98.3658Z" fill="#101820"/>
<path d="M182.061 115.203L185.64 114.36L182.627 112.278L182.061 115.203ZM178.291 116.082L179.951 115.692L180.853 111.038L179.456 110.066L180.004 107.236L188.04 112.945L187.317 116.676L177.705 119.102L178.291 116.082Z" fill="#101820"/>
<path d="M175.216 126.134L180.404 123.676L176.512 122.345L177.442 119.629L185.933 122.535L185.003 125.252L181.613 124.091L183.726 128.983L182.593 132.293L180.208 126.67L174.02 129.626L175.216 126.134Z" fill="#101820"/>
<path d="M174.157 137.017L177.829 137.192L175.508 134.361L174.157 137.017ZM170.291 136.823L171.994 136.905L174.144 132.68L173.068 131.362L174.375 128.791L180.526 136.494L178.804 139.88L168.896 139.565L170.291 136.823Z" fill="#101820"/>
<path d="M170.826 140.546L170.251 141.351C170.847 142.488 171.858 143.625 175.285 146.071L169.972 153.513L164.405 149.539L163.565 150.717L160.6 148.6L162.156 146.421L163.383 147.297L167.532 141.485L166.305 140.609L167.861 138.43L170.826 140.546ZM168.611 143.648L166.074 147.202L169.902 149.936L171.991 147.01C169.979 145.574 169.035 144.425 168.611 143.648Z" fill="#101820"/>
<path d="M167.66 156.251L161.758 162.507L160.258 161.091L164.198 156.915L163.25 156.022L159.435 160.066L157.882 158.601L161.697 154.556L160.688 153.604L156.699 157.833L155.181 156.402L161.132 150.093L167.66 156.251Z" fill="#101820"/>
<path d="M154.516 157.187L160.054 164.248L156.979 166.66L151.453 163.896L152.774 169.958L149.851 172.25L144.313 165.19L146.533 163.448L150.07 167.956L148.65 161.787L150.226 160.551L155.868 163.407L152.333 158.899L154.516 157.187Z" fill="#101820"/>
<path d="M136.288 169.629L139.055 174.633L140.531 167.283L143.054 165.887L147.397 173.741L144.874 175.136L142.108 170.133L140.631 177.483L138.118 178.872L133.776 171.018L136.288 169.629Z" fill="#101820"/>
<path d="M126.881 176.81L128.64 176.143L130.264 172.393L133.49 171.17L131.678 175.34C133.391 174.962 134.619 175.477 135.153 176.888L135.195 177C135.781 178.545 135.046 180.179 132.699 181.068L126.327 183.483L123.147 175.091L125.842 174.069L126.881 176.81ZM127.646 178.829L128.261 180.453L131.588 179.192C132.299 178.923 132.551 178.531 132.35 178.001L132.341 177.978C132.136 177.437 131.65 177.312 130.973 177.568L127.646 178.829Z" fill="#101820"/>
<path d="M116.887 176.715L118.259 185.584L108.484 187.095L107.113 178.226L109.961 177.786L111.007 184.545L115.084 183.914L114.038 177.155L116.887 176.715Z" fill="#101820"/>
<path d="M99.1284 181.21L102.566 181.179L102.542 178.405L105.425 178.379L105.505 187.354L99.1838 187.409C96.0961 187.437 95.2048 186.203 95.189 184.442L95.1877 184.297C95.1721 182.548 96.0651 181.237 99.1284 181.21ZM102.602 185.22L102.585 183.326L99.3891 183.355C98.4847 183.363 98.1744 183.74 98.1792 184.306L98.1795 184.342C98.1845 184.873 98.5015 185.257 99.4059 185.248L102.602 185.22Z" fill="#101820"/>
<path d="M92.7792 187.235L84.2426 186.19L84.4933 184.142L90.1923 184.84L90.3508 183.547L84.8311 182.871L85.091 180.752L90.6103 181.428L90.7788 180.051L85.0082 179.345L85.262 177.273L93.8701 178.327L92.7792 187.235Z" fill="#101820"/>
<path d="M83.9387 179.326L82.9843 179.068C82.1256 180.022 81.4118 181.366 80.3109 185.429L71.4858 183.039L73.274 176.437L71.8772 176.059L72.8297 172.543L75.4144 173.243L75.0198 174.698L81.9122 176.565L82.3069 175.11L84.8912 175.81L83.9387 179.326ZM80.2596 178.329L76.045 177.188L74.815 181.729L78.2844 182.668C78.9309 180.282 79.6788 178.997 80.2596 178.329Z" fill="#101820"/>
<path d="M71.6738 173.659L68.0663 181.876L59.0096 177.9L62.6171 169.683L65.2566 170.842L62.5073 177.104L66.285 178.763L69.0339 172.5L71.6738 173.659Z" fill="#101820"/>
<path d="M54.4089 168.009L57.3273 169.825L58.7935 167.47L61.2408 168.993L56.4984 176.613L51.1323 173.272C48.5112 171.641 48.4197 170.12 49.3504 168.625L49.427 168.503C50.3512 167.018 51.8076 166.39 54.4089 168.009ZM55.192 173.256L56.1929 171.649L53.4793 169.96C52.7109 169.481 52.2472 169.633 51.9475 170.114L51.9283 170.145C51.6479 170.595 51.7104 171.089 52.4784 171.567L55.192 173.256Z" fill="#101820"/>
<path d="M45.4929 157.774L41.8043 162.143L49.1977 160.902L51.4006 162.763L45.6106 169.619L43.4077 167.759L47.0968 163.391L39.7029 164.631L37.5093 162.778L43.2993 155.922L45.4929 157.774Z" fill="#101820"/>
<path d="M42.6401 155.265L35.9347 161.23L34.0183 159.075L36.4433 156.919L33.2766 153.359L30.8521 155.515L28.9362 153.361L35.6416 147.396L37.558 149.551L34.9438 151.875L38.1106 155.436L40.7243 153.111L42.6401 155.265Z" fill="#101820"/>
<path d="M30.7916 140.205L26.0252 143.363L33.4695 144.247L35.062 146.651L27.581 151.608L25.9886 149.204L30.7549 146.047L23.3101 145.162L21.7244 142.769L29.2055 137.812L30.7916 140.205Z" fill="#101820"/>
<path d="M28.582 136.923L20.4052 140.622L18.7945 137.06L22.7951 132.352L16.5927 132.191L15.0621 128.807L23.2389 125.108L24.4021 127.68L19.1817 130.041L25.5108 130.132L26.3358 131.956L22.2185 136.757L27.4392 134.396L28.582 136.923Z" fill="#101820"/>
<path d="M17.6628 118.162L14.8149 120.487L18.4348 121.039L17.6628 118.162ZM20.6665 115.719L19.3449 116.798L20.5734 121.377L22.2549 121.638L23.002 124.422L13.2774 122.81L12.2928 119.141L19.8692 112.749L20.6665 115.719Z" fill="#101820"/>
<path d="M19.4727 109.153L12.8166 109.976L13.2508 113.484L11.0006 113.763L9.77922 103.898L12.0298 103.62L12.464 107.127L19.1198 106.303L19.4727 109.153Z" fill="#101820"/>
<path d="M9.67979 101.769L9.70214 93.169L11.7648 93.1744L11.7499 98.9161L13.0526 98.9194L13.067 93.3587L15.2021 93.3643L15.1876 98.9251L16.5748 98.9286L16.5899 93.1146L18.6767 93.12L18.6541 101.793L9.67979 101.769Z" fill="#101820"/>
<path d="M19.6183 85.153L12.8397 84.2429L12.3791 87.6741C14.8179 88.0015 16.474 88.3577 17.3735 88.8193C18.3024 89.3334 18.9554 90.0905 18.7113 91.9077L18.583 92.8641L16.2636 92.5527L16.2829 92.4092C16.3713 91.7517 16.1093 91.4366 15.7508 91.2059C15.1748 90.873 14.3204 90.7096 9.89713 90.1157L11.1073 81.1016L20.0019 82.2958L19.6183 85.153Z" fill="#101820"/>
<path d="M12.6418 74.686L15.3227 75.4456L16.2763 72.08C17.1049 69.1554 18.5403 68.647 20.2463 69.1303L20.374 69.1665C22.0104 69.6301 23.0454 70.8888 22.2299 73.7668L20.4904 79.9062L11.8559 77.4598L12.6418 74.686ZM19.2222 76.5505L20.1099 73.417C20.3204 72.6742 20.0775 72.2042 19.532 72.0497L19.4507 72.0267C18.9285 71.8787 18.4751 72.1514 18.2647 72.8942L17.3769 76.0277L19.2222 76.5505Z" fill="#101820"/>
<path d="M25.7735 64.7463L25.5505 65.2544C23.7904 69.2637 20.9263 69.126 19.2806 68.4036L18.9493 68.2582C17.2815 67.526 15.3031 65.5509 17.068 61.5305L17.2911 61.0225C18.9979 57.1347 21.2642 56.9835 22.7442 57.6332L22.7994 57.6575L21.6066 60.3745C21.3822 60.3156 20.171 60.0736 19.2449 62.1832C18.3915 64.1271 19.284 65.1249 20.2339 65.5419L20.3775 65.605C21.2721 65.9977 22.7261 66.0168 23.5793 64.0729C24.5055 61.9634 23.4918 61.2417 23.2854 61.1116L24.4786 58.3943L24.5443 58.4237C25.9358 59.0348 27.4898 60.8366 25.7735 64.7463Z" fill="#101820"/>
<path d="M29.8121 56.5437L24.1045 53.0211L22.2487 56.0282L20.3187 54.8372L25.5397 46.3794L27.4693 47.5707L25.6126 50.5782L31.3194 54.1011L29.8121 56.5437Z" fill="#101820"/>
<path d="M33.768 50.2058L26.8475 44.4919L31.3247 39.0693C32.9608 37.088 34.2227 37.2077 35.0415 37.8834L35.1252 37.9524C36.0278 38.6972 35.7836 39.8262 35.4282 40.4083C36.1713 39.7547 37.3598 39.187 38.5225 40.1469L38.6152 40.2239C39.6568 41.0842 40.1111 42.5231 38.2607 44.7645L33.768 50.2058ZM32.4452 40.8385L30.2175 43.5362L31.3339 44.4577L33.5608 41.7605C34.0214 41.2025 33.9179 40.8354 33.6113 40.5817L33.5927 40.5664C33.2674 40.2974 32.9058 40.2806 32.4452 40.8385ZM35.1392 42.7664L32.7659 45.6408L33.9936 46.6545L36.3671 43.7802C36.9204 43.1102 36.7176 42.6927 36.42 42.4469L36.3826 42.4163C36.0753 42.1631 35.6926 42.0964 35.1392 42.7664Z" fill="#101820"/>
<path d="M43.5521 34.4086L40.181 32.9414L41.3479 36.4127L43.5521 34.4086ZM47.0994 35.9602L45.5346 35.2797L42.0271 38.4687L42.5653 40.0824L40.4319 42.022L37.4117 32.6389L40.2227 30.0831L49.3751 33.8911L47.0994 35.9602Z" fill="#101820"/>
<path d="M52.7598 24.8877L50.9244 26.0471L49.8744 24.3848C51.4345 23.3993 51.8011 22.7826 51.5251 21.6443L53.3605 20.485L58.1531 28.0726L55.7364 29.5991L52.7598 24.8877Z" fill="#101820"/>
<path d="M63.0546 18.6903L63.0389 18.6577C62.8523 18.279 62.3208 17.9088 60.6868 18.7136C58.9873 19.5507 59.0432 20.1819 59.214 20.5281L59.2352 20.5715C59.4217 20.9502 59.9431 21.2715 61.5556 20.4773C63.2 19.6675 63.2411 19.0691 63.0546 18.6903ZM64.2577 24.9553L63.8254 25.1681C60.2434 26.9324 58.843 25.7262 58.374 24.7739L58.3685 24.7632L60.9981 23.468C61.0993 23.593 61.5396 24.0215 63.0434 23.2809C64.894 22.3694 64.5301 21.0292 64.2043 20.3696L64.1673 20.2936C64.0142 20.5842 63.6265 21.4609 61.7 22.4097L61.505 22.5057C58.6813 23.8965 57.2449 23.2459 56.6319 22.0016L56.5461 21.8287C56.0031 20.7246 55.8577 18.8197 59.4933 17.0291L60.1214 16.7197C64.0494 14.785 65.8647 17.0508 66.5572 18.4577L66.68 18.7064C67.341 20.0482 68.1538 23.0363 64.2577 24.9553Z" fill="#101820"/>
<path d="M73.7955 14.5518L73.784 14.5176C73.649 14.1176 73.1703 13.6808 71.4449 14.2626C69.6506 14.8678 69.6216 15.5014 69.7451 15.8671L69.7605 15.9129C69.8956 16.3129 70.37 16.7002 72.073 16.1258C73.8104 15.5398 73.9306 14.9518 73.7955 14.5518ZM74.1612 20.9208L73.7044 21.0748C69.921 22.3509 68.6918 20.9705 68.3523 19.9649L68.3484 19.9535L71.1261 19.0166C71.2099 19.1539 71.5898 19.6367 73.1782 19.101C75.1328 18.4418 74.9485 17.0655 74.7139 16.3679L74.6869 16.288C74.497 16.5557 73.9965 17.3737 71.9618 18.0601L71.7559 18.1296C68.773 19.1355 67.4346 18.3014 66.9916 16.9866L66.9299 16.8038C66.5364 15.6382 66.6441 13.7306 70.4844 12.4353L71.1479 12.2114C75.2967 10.8122 76.7965 13.298 77.298 14.7836L77.3867 15.0465C77.8643 16.464 78.2763 19.5328 74.1612 20.9208Z" fill="#101820"/>
<path d="M77.3436 10.3841L86.6502 8.51125L87.0479 10.4858C86.7691 11.1204 86.2761 12.2162 85.7455 13.5534C84.944 15.6217 85.0514 16.523 85.2962 17.7411L85.3346 17.9301L82.2599 18.549L82.0934 17.7211C81.8194 16.3614 81.7997 15.5901 83.0914 13.5707C83.9063 12.2992 84.6074 11.2599 84.5761 11.1065L80.5442 11.9176L80.8417 13.3958L78.0623 13.9553L77.3436 10.3841Z" fill="#101820"/>
<path d="M105.784 12.1258L105.782 12.3789C105.767 14.6831 104.463 16.8821 99.9635 16.853L99.6976 16.8516C95.1986 16.8225 93.9221 14.6069 93.9373 12.3028L93.9387 12.0497C93.9534 9.79395 95.2464 7.55871 99.7694 7.58794L100.011 7.58914C104.534 7.61844 105.799 9.87012 105.784 12.1258ZM99.7408 15.7662L99.9338 15.7675C103.336 15.789 104.347 14.155 104.359 12.3338L104.36 12.177C104.373 10.2108 103.405 8.69699 99.9797 8.67485L99.7867 8.67358C96.3729 8.65172 95.3624 10.1528 95.3497 12.1189L95.3488 12.2757C95.3371 14.0971 96.3278 15.7439 99.7408 15.7662ZM100.024 14.8753L99.8071 14.8738C96.9119 14.8553 96.4155 13.3321 96.4223 12.2706L96.4238 12.0415C96.4306 10.98 96.9102 9.5116 99.8419 9.53012L100.059 9.53159C103.038 9.55098 103.355 10.9642 103.35 11.6881L103.35 11.724L101.203 11.7103C101.167 11.5534 101.014 10.9856 99.9047 10.9782C98.8311 10.9713 98.5502 11.5003 98.5463 12.0914L98.5459 12.1878C98.5419 12.7789 98.8273 13.4081 99.9008 13.4149C101.022 13.4223 101.16 12.8196 101.197 12.627L103.356 12.641L103.356 12.689C103.351 13.4249 102.967 14.8941 100.024 14.8753Z" fill="#101820"/>
</svg>
