<svg width="200" height="195" viewBox="0 0 200 195" fill="none" xmlns="http://www.w3.org/2000/svg">
<path d="M147.813 46.4616V24L170.291 46.4616H147.813Z" fill="#511E84"/>
<path d="M192.754 46.4616V24L170.291 46.4616H192.754Z" fill="#AECC50"/>
<path d="M170.275 46.4622L192.754 46.4616L170.275 68.941V46.4622Z" fill="#E8485E"/>
<path d="M170.275 46.4622L147.813 46.4616L170.275 68.941V46.4622Z" fill="#00C1D4"/>
<path d="M73.6524 117.906V157.326H59.5323V134.537L44.9477 157.326H32.3411L17.103 134.898V157.326H3V117.906H19.2184L38.6874 147.591L58.0704 117.906H73.6524Z" fill="#E8485E"/>
<path d="M96.2344 142.999L121.173 117.906H135.276V157.326H121.173V132.233L96.2344 157.326H82.1314V117.906H96.2344V142.999Z" fill="#E8485E"/>
<path d="M195.059 126.627C193.098 123.376 190.381 120.831 186.907 118.99C183.433 117.15 178.772 116.239 174.421 116.239C166.458 116.239 159.217 121.845 157.789 124.098V117.89H143.686V171.051H157.789V151.582C159.956 154.299 166.062 158.565 174.421 158.823C178.755 158.96 183.433 157.911 186.907 156.071C190.381 154.231 193.098 151.702 195.059 148.435C197.02 145.184 198 141.555 198 137.548C198 133.54 197.02 129.843 195.059 126.592M180.354 146.594C177.86 148.675 174.851 149.707 171.342 149.707C169.089 149.707 166.939 149.26 164.858 148.366C162.777 147.471 161.091 146.113 159.767 144.272C158.615 142.673 157.961 140.747 157.824 138.528V136.55C157.961 134.28 158.615 132.354 159.767 130.754C161.091 128.914 162.777 127.555 164.858 126.661C166.939 125.767 169.089 125.319 171.342 125.319C174.851 125.319 177.86 126.351 180.354 128.432C182.848 130.514 184.086 133.54 184.086 137.548C184.086 141.555 182.848 144.513 180.354 146.594Z" fill="#E8485E"/>
<path d="M123.564 70.0241C127.795 71.8644 131.097 74.3926 133.487 77.6603C135.878 80.9109 137.065 84.5742 137.065 88.6159C137.065 92.6576 135.878 96.2522 133.487 99.5027C131.097 102.753 127.795 105.299 123.564 107.139C119.333 108.979 114.586 109.891 109.306 109.891C104.026 109.891 99.4684 108.962 95.0483 107.105C90.6282 105.247 87.0853 102.685 84.4539 99.434C81.8053 96.1834 80.4982 92.5717 80.4982 88.6159C80.4982 84.6602 81.8225 80.9797 84.4539 77.7291C87.1025 74.4786 90.6282 71.916 95.0483 70.0585C99.4684 68.201 104.232 67.2723 109.306 67.2723C114.38 67.2723 119.333 68.1838 123.564 70.0241ZM118.765 97.6625C121.38 95.5986 122.687 92.5717 122.687 88.6159C122.687 84.6602 121.38 81.5817 118.765 79.5006C116.151 77.4196 113.004 76.3876 109.306 76.3876C106.95 76.3876 104.68 76.8348 102.495 77.7291C100.311 78.6235 98.5397 79.9822 97.1466 81.8224C95.7707 83.6627 95.0655 85.9157 95.0655 88.6159C95.0655 91.3161 95.7535 93.5176 97.1466 95.3407C98.5397 97.1809 100.311 98.5396 102.495 99.434C104.68 100.328 106.933 100.775 109.306 100.775C113.004 100.775 116.151 99.7435 118.765 97.6625Z" fill="#E8485E"/>
<path d="M157.824 94.052L182.745 68.9418H196.865V108.361H182.745V83.2683L157.824 108.361H143.721V68.9418H157.824V94.052Z" fill="#E8485E"/>
<path d="M73.6524 68.9418V108.361H59.5323V85.573L44.9477 108.361H32.3411L17.103 85.9513V108.361H3V68.9418H19.2184L38.6874 98.6268L58.0704 68.9418H73.6524Z" fill="#E8485E"/>
</svg>
