<svg width="1900" height="950" viewBox="0 0 1900 950" fill="none" xmlns="http://www.w3.org/2000/svg">
<g clip-path="url(#clip0_430_12)">
<rect width="1900" height="950" rx="50" fill="#191919"/>
<rect x="100" y="950" width="950" height="100" transform="rotate(-90 100 950)" fill="url(#paint0_linear_430_12)"/>
<path d="M391.003 256.727H356.738V362H336.401V256.727H302.222V239.466H391.003V256.727ZM477.905 362H409.119V239.466H475.171V256.897H429.456V291.333H471.838V308.68H429.456V344.568H477.905V362ZM590.1 362H565.747L540.71 318.677C540.027 317.481 539.514 316.569 539.172 315.943C538.888 315.259 538.46 314.376 537.891 313.294H537.549C537.15 314.205 536.723 315.088 536.267 315.943C535.811 316.74 535.242 317.68 534.558 318.763L508.496 362H485.254L524.561 300.306L488.074 239.466H512.17L534.558 278.858C535.356 280.225 536.039 281.45 536.609 282.532C537.236 283.615 537.891 284.868 538.574 286.292H538.916C539.714 284.754 540.454 283.415 541.138 282.276C541.821 281.137 542.533 279.883 543.274 278.516L566.26 239.466H589.331L552.246 299.964L590.1 362ZM704.431 362H684.009V309.107H626.331V362H605.994V239.466H626.331V290.992H684.009V239.466H704.431V362ZM732.971 362V239.466H753.052V315.772C753.052 319.532 752.995 322.551 752.881 324.83C752.824 327.108 752.653 329.9 752.368 333.204H752.71C753.507 331.722 754.248 330.412 754.932 329.273C755.672 328.077 756.783 326.425 758.264 324.317L816.882 239.466H837.048V362H816.968V285.694C816.968 281.934 816.996 278.915 817.053 276.636C817.167 274.358 817.367 271.566 817.651 268.262H817.31C816.512 269.743 815.743 271.082 815.002 272.278C814.319 273.418 813.265 275.041 811.841 277.149L753.137 362H732.971ZM955.396 362H935.059V313.123C930.33 315.345 925.403 316.997 920.276 318.079C915.206 319.161 909.652 319.703 903.613 319.703C889.315 319.703 879.089 316.598 872.937 310.389C866.842 304.179 863.794 295.293 863.794 283.729V239.466H884.045V281.763C884.045 288.998 886.125 294.153 890.283 297.229C894.499 300.306 900.452 301.844 908.142 301.844C912.813 301.844 917.399 301.36 921.899 300.391C926.4 299.423 930.786 297.799 935.059 295.521V239.466H955.396V362ZM1053.66 362H984.875V239.466H1050.93V256.897H1005.21V291.333H1047.6V308.68H1005.21V344.568H1053.66V362ZM1176.11 334.827C1171.95 343.372 1165.6 350.379 1157.06 355.848C1148.57 361.316 1138.31 364.051 1126.29 364.051C1108.18 364.051 1093.57 358.582 1082.46 347.645C1071.41 336.707 1065.88 321.896 1065.88 303.211C1065.88 283.444 1071.44 267.55 1082.54 255.53C1093.71 243.453 1108.09 237.415 1125.7 237.415C1137.66 237.415 1147.8 240.121 1156.12 245.533C1164.49 250.944 1170.78 258.493 1175 268.177L1157.14 275.184C1153.95 268.576 1149.76 263.676 1144.58 260.486C1139.45 257.239 1133.24 255.616 1125.95 255.616C1114.67 255.616 1105.39 259.917 1098.1 268.519C1090.86 277.063 1087.24 288.172 1087.24 301.844C1087.24 315.345 1090.83 326.026 1098.01 333.887C1105.24 341.749 1114.9 345.679 1126.98 345.679C1134.55 345.679 1140.96 343.999 1146.2 340.638C1151.44 337.22 1155.55 332.492 1158.51 326.453L1176.11 334.827ZM1290.1 362H1263.87L1221.83 307.996C1221.09 307.085 1220.46 306.259 1219.95 305.518C1219.49 304.721 1219.03 303.951 1218.58 303.211H1218.15V362H1197.81V239.466H1218.15V295.777H1218.58C1218.98 295.093 1219.43 294.381 1219.95 293.641C1220.52 292.843 1221.17 291.96 1221.91 290.992L1263.1 239.466H1286.51L1238.66 297.828L1290.1 362ZM1305.82 362V239.466H1325.9V315.772C1325.9 319.532 1325.85 322.551 1325.73 324.83C1325.68 327.108 1325.5 329.9 1325.22 333.204H1325.56C1326.36 331.722 1327.1 330.412 1327.78 329.273C1328.52 328.077 1329.63 326.425 1331.12 324.317L1389.73 239.466H1409.9V362H1389.82V285.694C1389.82 281.934 1389.85 278.915 1389.9 276.636C1390.02 274.358 1390.22 271.566 1390.5 268.262H1390.16C1389.36 269.743 1388.59 271.082 1387.85 272.278C1387.17 273.418 1386.12 275.041 1384.69 277.149L1325.99 362H1305.82ZM1438.61 362V239.466H1458.69V315.772C1458.69 319.532 1458.63 322.551 1458.52 324.83C1458.46 327.108 1458.29 329.9 1458.01 333.204H1458.35C1459.15 331.722 1459.89 330.412 1460.57 329.273C1461.31 328.077 1462.42 326.425 1463.9 324.317L1522.52 239.466H1542.69V362H1522.61V285.694C1522.61 281.934 1522.64 278.915 1522.69 276.636C1522.81 274.358 1523.01 271.566 1523.29 268.262H1522.95C1522.15 269.743 1521.38 271.082 1520.64 272.278C1519.96 273.418 1518.9 275.041 1517.48 277.149L1458.78 362H1438.61ZM1517.05 204.004C1516.2 212.492 1513.38 218.986 1508.59 223.487C1503.81 227.987 1497.26 230.237 1488.94 230.237C1480.57 230.237 1473.99 227.987 1469.2 223.487C1464.42 218.986 1461.63 212.492 1460.83 204.004H1475.27C1475.78 209.473 1477.21 213.461 1479.54 215.967C1481.88 218.474 1485.01 219.727 1488.94 219.727C1492.81 219.727 1495.92 218.474 1498.25 215.967C1500.65 213.461 1502.13 209.473 1502.7 204.004H1517.05ZM301.794 562.72V519.227H312.646C317.66 509.656 321.334 498.747 323.669 486.5C326.005 474.195 327.173 460.409 327.173 445.142V414.466H404.846V519.227H421.68V562.72H403.137V537H320.422V562.72H301.794ZM333.667 519.227H384.595V431.983H346.057V447.107C346.057 462.488 345.06 476.16 343.066 488.123C341.073 500.029 337.939 510.397 333.667 519.227ZM441.248 537V414.466H461.328V490.772C461.328 494.532 461.271 497.551 461.157 499.83C461.1 502.108 460.929 504.9 460.645 508.204H460.986C461.784 506.722 462.524 505.412 463.208 504.273C463.949 503.077 465.059 501.425 466.541 499.317L525.159 414.466H545.325V537H525.244V460.694C525.244 456.934 525.273 453.915 525.33 451.636C525.444 449.358 525.643 446.566 525.928 443.262H525.586C524.788 444.743 524.019 446.082 523.279 447.278C522.595 448.418 521.541 450.041 520.117 452.149L461.414 537H441.248ZM566.174 517.261L581.982 508.118C584.432 513.131 587.764 516.806 591.98 519.141C596.195 521.42 601.095 522.559 606.677 522.559C614.083 522.559 619.893 520.822 624.109 517.347C628.324 513.872 630.432 508.916 630.432 502.479C630.432 496.041 627.897 491.085 622.827 487.61C617.757 484.135 610.522 482.369 601.123 482.312H588.818V465.394H600.183C608.785 465.394 615.45 463.713 620.178 460.352C624.963 456.934 627.356 452.12 627.356 445.911C627.356 440.442 625.59 436.227 622.058 433.265C618.583 430.302 613.798 428.821 607.703 428.821C602.69 428.821 598.332 429.875 594.629 431.983C590.926 434.091 587.935 437.423 585.657 441.98L570.02 434.632C573.267 427.397 578.308 421.9 585.144 418.14C591.98 414.323 600.012 412.415 609.241 412.415C621.602 412.415 631.173 415.121 637.952 420.533C644.788 425.944 648.206 433.635 648.206 443.604C648.206 450.725 646.212 456.82 642.224 461.89C638.236 466.903 632.625 470.521 625.391 472.742V473.084C633.651 474.622 640.002 477.898 644.446 482.911C648.946 487.924 651.196 494.332 651.196 502.137C651.196 513.986 647.323 523.1 639.575 529.48C631.885 535.861 621.09 539.051 607.19 539.051C597.677 539.051 589.417 537.256 582.41 533.667C575.46 530.022 570.048 524.553 566.174 517.261ZM660.083 537L705.713 414.466H728.613L773.901 537H752.026L741.431 507.947H692.041L681.873 537H660.083ZM697.51 490.687H735.876L719.128 442.066C718.673 440.813 718.274 439.702 717.932 438.733C717.647 437.708 717.306 436.455 716.907 434.974H716.479C716.024 436.341 715.653 437.537 715.369 438.562C715.084 439.588 714.714 440.756 714.258 442.066L697.51 490.687ZM789.539 537V414.466H809.619V490.772C809.619 494.532 809.562 497.551 809.448 499.83C809.391 502.108 809.22 504.9 808.936 508.204H809.277C810.075 506.722 810.815 505.412 811.499 504.273C812.24 503.077 813.35 501.425 814.832 499.317L873.45 414.466H893.616V537H873.535V460.694C873.535 456.934 873.564 453.915 873.621 451.636C873.735 449.358 873.934 446.566 874.219 443.262H873.877C873.079 444.743 872.31 446.082 871.57 447.278C870.886 448.418 869.832 450.041 868.408 452.149L809.705 537H789.539ZM867.981 379.004C867.126 387.492 864.307 393.986 859.521 398.487C854.736 402.987 848.185 405.237 839.868 405.237C831.494 405.237 824.915 402.987 820.129 398.487C815.344 393.986 812.553 387.492 811.755 379.004H826.196C826.709 384.473 828.133 388.461 830.469 390.967C832.804 393.474 835.938 394.727 839.868 394.727C843.742 394.727 846.847 393.474 849.182 390.967C851.575 388.461 853.056 384.473 853.625 379.004H867.981ZM1020.76 537H1000.34V484.107H942.664V537H922.327V414.466H942.664V465.992H1000.34V414.466H1020.76V537ZM314.27 712V589.466H334.351V665.772C334.351 669.532 334.294 672.551 334.18 674.83C334.123 677.108 333.952 679.9 333.667 683.204H334.009C334.806 681.722 335.547 680.412 336.23 679.273C336.971 678.077 338.082 676.425 339.563 674.317L398.181 589.466H418.347V712H398.267V635.694C398.267 631.934 398.295 628.915 398.352 626.636C398.466 624.358 398.665 621.566 398.95 618.262H398.608C397.811 619.743 397.042 621.082 396.301 622.278C395.618 623.418 394.564 625.041 393.14 627.149L334.436 712H314.27ZM499.951 589.466L527.722 646.631C528.52 648.283 529.175 649.793 529.688 651.16C530.257 652.527 530.77 654.065 531.226 655.774H531.396C531.852 654.236 532.279 652.755 532.678 651.331C533.134 649.907 533.647 648.34 534.216 646.631L555.579 589.466H577.026L541.309 677.649C535.897 691.036 530.286 700.464 524.475 705.933C518.665 711.402 511.544 714.136 503.113 714.136C499.353 714.136 496.049 713.766 493.201 713.025C490.409 712.342 487.618 711.174 484.827 709.522L490.637 693.885C492.403 694.796 494.169 695.48 495.935 695.936C497.701 696.334 499.723 696.534 502.002 696.534C505.99 696.534 509.493 694.939 512.512 691.749C515.588 688.558 518.636 683.204 521.655 675.684L476.794 589.466H499.951ZM613.086 712H592.664V589.466H691.528V712H671.106V607.667H613.086V712ZM706.909 712L752.539 589.466H775.439L820.728 712H798.853L788.257 682.947H738.867L728.699 712H706.909ZM744.336 665.687H782.703L765.955 617.066C765.499 615.813 765.1 614.702 764.758 613.733C764.473 612.708 764.132 611.455 763.733 609.974H763.306C762.85 611.341 762.48 612.537 762.195 613.562C761.91 614.588 761.54 615.756 761.084 617.066L744.336 665.687ZM928.65 712H902.417L860.376 657.996C859.635 657.085 859.009 656.259 858.496 655.518C858.04 654.721 857.585 653.951 857.129 653.211H856.702V712H836.365V589.466H856.702V645.777H857.129C857.528 645.093 857.983 644.381 858.496 643.641C859.066 642.843 859.721 641.96 860.461 640.992L901.648 589.466H925.061L877.209 647.828L928.65 712ZM987.866 714.051C970.378 714.051 956.136 708.354 945.142 696.961C934.147 685.511 928.65 670.614 928.65 652.271C928.65 632.789 934.29 617.123 945.569 605.274C956.848 593.368 971.602 587.415 989.832 587.415C1007.04 587.415 1020.96 593.112 1031.62 604.505C1042.33 615.841 1047.68 630.852 1047.68 649.537C1047.68 668.791 1042.13 684.371 1031.02 696.277C1019.97 708.126 1005.58 714.051 987.866 714.051ZM988.037 695.936C999.544 695.936 1008.8 691.891 1015.81 683.802C1022.81 675.656 1026.32 664.804 1026.32 651.246C1026.32 637.232 1022.9 626.124 1016.06 617.92C1009.23 609.717 1000.2 605.616 988.977 605.616C977.299 605.616 967.871 609.746 960.693 618.006C953.573 626.266 950.012 637.232 950.012 650.904C950.012 664.462 953.544 675.371 960.608 683.631C967.672 691.834 976.815 695.936 988.037 695.936ZM1068.44 712V589.466H1108.26C1120.57 589.466 1130.05 592.115 1136.72 597.413C1143.38 602.653 1146.72 610.145 1146.72 619.886C1146.72 626.209 1144.89 631.763 1141.25 636.548C1137.66 641.333 1133.07 644.694 1127.49 646.631V646.973C1134.9 648.397 1140.73 651.758 1145.01 657.056C1149.28 662.354 1151.42 668.734 1151.42 676.197C1151.42 687.02 1147.57 695.708 1139.88 702.259C1132.25 708.753 1122.05 712 1109.29 712H1068.44ZM1088.78 606.043V640.906H1103.05C1109.89 640.906 1115.3 639.34 1119.29 636.207C1123.33 633.016 1125.35 628.374 1125.35 622.278C1125.35 616.98 1123.67 612.964 1120.31 610.23C1117.01 607.439 1112.19 606.043 1105.87 606.043H1088.78ZM1088.78 657.312V695.423H1106.38C1114.02 695.423 1119.86 693.685 1123.9 690.21C1128 686.736 1130.05 681.979 1130.05 675.94C1130.05 669.902 1127.89 665.288 1123.56 662.098C1119.23 658.908 1112.94 657.312 1104.68 657.312H1088.78ZM1264.81 712H1238.57L1196.53 657.996C1195.79 657.085 1195.17 656.259 1194.65 655.518C1194.2 654.721 1193.74 653.951 1193.29 653.211H1192.86V712H1172.52V589.466H1192.86V645.777H1193.29C1193.68 645.093 1194.14 644.381 1194.65 643.641C1195.22 642.843 1195.88 641.96 1196.62 640.992L1237.81 589.466H1261.22L1213.37 647.828L1264.81 712ZM1267.63 712L1313.26 589.466H1336.16L1381.45 712H1359.57L1348.97 682.947H1299.58L1289.42 712H1267.63ZM1305.05 665.687H1343.42L1326.67 617.066C1326.22 615.813 1325.82 614.702 1325.48 613.733C1325.19 612.708 1324.85 611.455 1324.45 609.974H1324.02C1323.57 611.341 1323.2 612.537 1322.91 613.562C1322.63 614.588 1322.26 615.756 1321.8 617.066L1305.05 665.687Z" fill="#F0EFED"/>
<rect x="2.5" y="2.5" width="1895" height="945" rx="47.5" stroke="#30302E" stroke-width="5"/>
</g>
<defs>
<linearGradient id="paint0_linear_430_12" x1="1050" y1="1000" x2="100" y2="1000" gradientUnits="userSpaceOnUse">
<stop stop-color="#191919"/>
<stop offset="1" stop-color="#C54079"/>
</linearGradient>
<clipPath id="clip0_430_12">
<rect width="1900" height="950" rx="50" fill="white"/>
</clipPath>
</defs>
</svg>
