<svg width="1900" height="950" viewBox="0 0 1900 950" fill="none" xmlns="http://www.w3.org/2000/svg">
<g clip-path="url(#clip0_520_1507)">
<rect width="1900" height="950" rx="50" fill="#191919"/>
<rect x="100" y="950" width="950" height="100" transform="rotate(-90 100 950)" fill="url(#paint0_linear_520_1507)"/>
<path d="M334.692 449H314.27V326.466H413.135V449H392.712V344.667H334.692V449ZM510.205 449H441.418V326.466H507.471V343.897H461.755V378.333H504.138V395.68H461.755V431.568H510.205V449ZM619.922 449H599.585V400.123C594.857 402.345 589.929 403.997 584.802 405.079C579.732 406.161 574.178 406.703 568.14 406.703C553.841 406.703 543.616 403.598 537.463 397.389C531.368 391.179 528.32 382.293 528.32 370.729V326.466H548.572V368.763C548.572 375.998 550.651 381.153 554.81 384.229C559.025 387.306 564.978 388.844 572.668 388.844C577.34 388.844 581.925 388.36 586.426 387.391C590.926 386.423 595.312 384.799 599.585 382.521V326.466H619.922V449ZM636.499 449L682.129 326.466H705.029L750.317 449H728.442L717.847 419.947H668.457L658.289 449H636.499ZM673.926 402.687H712.292L695.544 354.066C695.089 352.813 694.69 351.702 694.348 350.733C694.063 349.708 693.722 348.455 693.323 346.974H692.896C692.44 348.341 692.069 349.537 691.785 350.562C691.5 351.588 691.13 352.756 690.674 354.066L673.926 402.687ZM830.554 343.727H796.289V449H775.952V343.727H741.772V326.466H830.554V343.727ZM947.107 449H926.685V396.107H869.006V449H848.669V326.466H869.006V377.992H926.685V326.466H947.107V449ZM1071.26 449V326.466H1091.52V449H1071.26ZM975.647 449V326.466H995.984V369.361H1013.07C1026.97 369.361 1037.68 372.694 1045.2 379.359C1052.78 386.024 1056.57 395.537 1056.57 407.899C1056.57 421.058 1052.55 431.198 1044.52 438.319C1036.49 445.44 1025.07 449 1010.25 449H975.647ZM995.984 432.423H1008.46C1017 432.423 1023.58 430.372 1028.2 426.271C1032.81 422.112 1035.12 416.244 1035.12 408.668C1035.12 401.433 1032.9 395.851 1028.45 391.92C1024.01 387.989 1017.66 386.024 1009.4 386.024L995.984 386.109V432.423ZM1189.01 449H1120.23V326.466H1186.28V343.897H1140.56V378.333H1182.95V395.68H1140.56V431.568H1189.01V449ZM446.033 624H425.867V545.814C425.867 542.567 425.895 539.462 425.952 536.5C426.009 533.481 426.095 530.063 426.208 526.246H425.781C425.212 527.898 424.699 529.379 424.243 530.689C423.787 531.943 423.303 533.281 422.791 534.706L386.816 624H372.803L336.743 535.475C336.23 534.221 335.718 532.94 335.205 531.629C334.749 530.262 334.151 528.468 333.411 526.246H332.898C333.069 529.664 333.183 533.167 333.24 536.756C333.297 540.288 333.325 544.162 333.325 548.377V624H314.27V501.466H343.152L375.024 581.104C376.221 584.067 377.189 586.573 377.93 588.624C378.67 590.618 379.411 592.811 380.151 595.204H380.664C381.632 592.469 382.544 589.991 383.398 587.77C384.253 585.548 385.136 583.241 386.047 580.848L418.433 501.466H446.033V624ZM461.67 624L507.3 501.466H530.2L575.488 624H553.613L543.018 594.947H493.628L483.459 624H461.67ZM499.097 577.687H537.463L520.715 529.066C520.26 527.813 519.861 526.702 519.519 525.733C519.234 524.708 518.892 523.455 518.494 521.974H518.066C517.611 523.341 517.24 524.537 516.956 525.562C516.671 526.588 516.3 527.756 515.845 529.066L499.097 577.687ZM655.725 518.727H621.46V624H601.123V518.727H566.943V501.466H655.725V518.727ZM742.627 624H673.84V501.466H739.893V518.897H694.177V553.333H736.56V570.68H694.177V606.568H742.627V624ZM783.044 581.361V624H762.708V501.466H800.476C814.547 501.466 825.342 504.77 832.861 511.378C840.438 517.929 844.226 527.385 844.226 539.747C844.226 552.337 840.011 562.42 831.58 569.996C823.149 577.573 811.784 581.361 797.485 581.361H783.044ZM783.044 518.128V564.613H796.545C805.033 564.613 811.528 562.534 816.028 558.375C820.585 554.16 822.864 548.235 822.864 540.602C822.864 533.253 820.728 527.67 816.455 523.854C812.24 520.037 805.973 518.128 797.656 518.128H783.044ZM863.367 624V501.466H883.447V577.772C883.447 581.532 883.39 584.551 883.276 586.83C883.219 589.108 883.049 591.9 882.764 595.204H883.105C883.903 593.722 884.644 592.412 885.327 591.273C886.068 590.077 887.179 588.425 888.66 586.317L947.278 501.466H967.444V624H947.363V547.694C947.363 543.934 947.392 540.915 947.449 538.636C947.563 536.358 947.762 533.566 948.047 530.262H947.705C946.908 531.743 946.139 533.082 945.398 534.278C944.714 535.418 943.66 537.041 942.236 539.149L883.533 624H863.367ZM983.252 624L1028.88 501.466H1051.78L1097.07 624H1075.2L1064.6 594.947H1015.21L1005.04 624H983.252ZM1020.68 577.687H1059.05L1042.3 529.066C1041.84 527.813 1041.44 526.702 1041.1 525.733C1040.82 524.708 1040.47 523.455 1040.08 521.974H1039.65C1039.19 523.341 1038.82 524.537 1038.54 525.562C1038.25 526.588 1037.88 527.756 1037.43 529.066L1020.68 577.687ZM1212.85 624H1192.52V518.983H1151.76V558.46C1151.76 575.607 1150.82 588.766 1148.94 597.938C1147.12 607.11 1144.07 613.832 1139.79 618.104C1136.95 620.952 1133.84 622.975 1130.48 624.171C1127.18 625.424 1123.1 626.051 1118.26 626.051C1116.04 626.051 1113.96 625.88 1112.02 625.538C1110.09 625.253 1108.29 624.798 1106.64 624.171L1111.08 607.594C1112 607.879 1112.82 608.106 1113.56 608.277C1114.36 608.391 1115.27 608.448 1116.3 608.448C1118.29 608.448 1120 608.192 1121.42 607.679C1122.85 607.11 1124.19 606.198 1125.44 604.945C1128.06 602.324 1129.91 597.311 1130.99 589.906C1132.13 582.443 1132.7 571.278 1132.7 556.41V501.466H1212.85V624ZM1337.18 624V501.466H1357.43V624H1337.18ZM1241.56 624V501.466H1261.9V544.361H1278.99C1292.89 544.361 1303.6 547.694 1311.12 554.359C1318.7 561.024 1322.49 570.537 1322.49 582.899C1322.49 596.058 1318.47 606.198 1310.44 613.319C1302.4 620.44 1290.98 624 1276.17 624H1241.56ZM1261.9 607.423H1274.38C1282.92 607.423 1289.5 605.372 1294.12 601.271C1298.73 597.112 1301.04 591.244 1301.04 583.668C1301.04 576.433 1298.82 570.851 1294.37 566.92C1289.93 562.989 1283.58 561.024 1275.32 561.024L1261.9 561.109V607.423Z" fill="#F0EFED"/>
<rect x="2.5" y="2.5" width="1895" height="945" rx="47.5" stroke="#30302E" stroke-width="5"/>
</g>
<defs>
<linearGradient id="paint0_linear_520_1507" x1="1050" y1="1000" x2="100" y2="1000" gradientUnits="userSpaceOnUse">
<stop stop-color="#191919"/>
<stop offset="1" stop-color="#C54079"/>
</linearGradient>
<clipPath id="clip0_520_1507">
<rect width="1900" height="950" rx="50" fill="white"/>
</clipPath>
</defs>
</svg>
