<svg width="1900" height="950" viewBox="0 0 1900 950" fill="none" xmlns="http://www.w3.org/2000/svg">
<g clip-path="url(#clip0_385_282)">
<rect width="1900" height="950" rx="50" fill="#191919"/>
<rect x="100" y="950" width="950" height="100" transform="rotate(-90 100 950)" fill="url(#paint0_linear_385_282)"/>
<path d="M334.607 494.361V537H314.27V414.466H352.039C366.109 414.466 376.904 417.77 384.424 424.378C392 430.929 395.789 440.385 395.789 452.747C395.789 465.337 391.573 475.42 383.142 482.996C374.711 490.573 363.346 494.361 349.048 494.361H334.607ZM334.607 431.128V477.613H348.108C356.596 477.613 363.09 475.534 367.59 471.375C372.148 467.16 374.426 461.235 374.426 453.602C374.426 446.253 372.29 440.67 368.018 436.854C363.802 433.037 357.536 431.128 349.219 431.128H334.607ZM389.038 537L434.668 414.466H457.568L502.856 537H480.981L470.386 507.947H420.996L410.828 537H389.038ZM426.465 490.687H464.832L448.083 442.066C447.628 440.813 447.229 439.702 446.887 438.733C446.602 437.708 446.261 436.455 445.862 434.974H445.435C444.979 436.341 444.609 437.537 444.324 438.562C444.039 439.588 443.669 440.756 443.213 442.066L426.465 490.687ZM518.494 537V414.466H590.784V431.812H538.831V461.377H558.057C571.729 461.377 582.267 464.568 589.673 470.948C597.135 477.271 600.867 486.272 600.867 497.95C600.867 510.425 596.908 520.053 588.989 526.832C581.071 533.611 569.849 537 555.322 537H518.494ZM538.831 520.508H553.442C561.759 520.508 568.14 518.628 572.583 514.869C577.083 511.052 579.333 505.64 579.333 498.633C579.333 492.025 577.169 486.927 572.839 483.338C568.51 479.749 562.358 477.926 554.382 477.869H538.831V520.508ZM669.995 539.051C652.507 539.051 638.265 533.354 627.271 521.961C616.276 510.511 610.779 495.614 610.779 477.271C610.779 457.789 616.418 442.123 627.698 430.274C638.977 418.368 653.731 412.415 671.96 412.415C689.164 412.415 703.092 418.112 713.745 429.505C724.455 440.841 729.81 455.852 729.81 474.537C729.81 493.791 724.255 509.371 713.147 521.277C702.096 533.126 687.712 539.051 669.995 539.051ZM670.166 520.936C681.673 520.936 690.93 516.891 697.937 508.802C704.944 500.656 708.447 489.804 708.447 476.246C708.447 462.232 705.029 451.124 698.193 442.92C691.357 434.717 682.328 430.616 671.106 430.616C659.428 430.616 650 434.746 642.822 443.006C635.701 451.266 632.141 462.232 632.141 475.904C632.141 489.462 635.673 500.371 642.737 508.631C649.801 516.834 658.944 520.936 670.166 520.936ZM819.446 431.727H785.181V537H764.844V431.727H730.664V414.466H819.446V431.727ZM812.183 537L857.812 414.466H880.713L926.001 537H904.126L893.53 507.947H844.141L833.972 537H812.183ZM849.609 490.687H887.976L871.228 442.066C870.772 440.813 870.374 439.702 870.032 438.733C869.747 437.708 869.405 436.455 869.006 434.974H868.579C868.123 436.341 867.753 437.537 867.468 438.562C867.183 439.588 866.813 440.756 866.357 442.066L849.609 490.687ZM1085.02 509.827C1080.86 518.372 1074.51 525.379 1065.97 530.848C1057.48 536.316 1047.22 539.051 1035.21 539.051C1017.09 539.051 1002.48 533.582 991.37 522.645C980.318 511.707 974.792 496.896 974.792 478.211C974.792 458.444 980.347 442.55 991.455 430.53C1002.62 418.453 1017 412.415 1034.61 412.415C1046.57 412.415 1056.71 415.121 1065.03 420.533C1073.4 425.944 1079.7 433.493 1083.91 443.177L1066.05 450.184C1062.86 443.576 1058.68 438.676 1053.49 435.486C1048.36 432.239 1042.15 430.616 1034.86 430.616C1023.58 430.616 1014.3 434.917 1007.01 443.519C999.772 452.063 996.155 463.172 996.155 476.844C996.155 490.345 999.744 501.026 1006.92 508.887C1014.16 516.749 1023.81 520.679 1035.89 520.679C1043.47 520.679 1049.87 518.999 1055.11 515.638C1060.36 512.22 1064.46 507.492 1067.42 501.453L1085.02 509.827ZM1147.74 537V414.466H1167.82V490.772C1167.82 494.532 1167.77 497.551 1167.65 499.83C1167.59 502.108 1167.42 504.9 1167.14 508.204H1167.48C1168.28 506.722 1169.02 505.412 1169.7 504.273C1170.44 503.077 1171.55 501.425 1173.03 499.317L1231.65 414.466H1251.82V537H1231.74V460.694C1231.74 456.934 1231.77 453.915 1231.82 451.636C1231.94 449.358 1232.14 446.566 1232.42 443.262H1232.08C1231.28 444.743 1230.51 446.082 1229.77 447.278C1229.09 448.418 1228.04 450.041 1226.61 452.149L1167.91 537H1147.74ZM1280.53 537V414.466H1300.61V490.772C1300.61 494.532 1300.55 497.551 1300.44 499.83C1300.38 502.108 1300.21 504.9 1299.93 508.204H1300.27C1301.07 506.722 1301.81 505.412 1302.49 504.273C1303.23 503.077 1304.34 501.425 1305.82 499.317L1364.44 414.466H1384.61V537H1364.53V460.694C1364.53 456.934 1364.55 453.915 1364.61 451.636C1364.73 449.358 1364.93 446.566 1365.21 443.262H1364.87C1364.07 444.743 1363.3 446.082 1362.56 447.278C1361.88 448.418 1360.82 450.041 1359.4 452.149L1300.7 537H1280.53Z" fill="#F0EFED"/>
<rect x="2.5" y="2.5" width="1895" height="945" rx="47.5" stroke="#30302E" stroke-width="5"/>
</g>
<defs>
<linearGradient id="paint0_linear_385_282" x1="1050" y1="1000" x2="100" y2="1000" gradientUnits="userSpaceOnUse">
<stop stop-color="#191919"/>
<stop offset="1" stop-color="#358C5C"/>
</linearGradient>
<clipPath id="clip0_385_282">
<rect width="1900" height="950" rx="50" fill="white"/>
</clipPath>
</defs>
</svg>
