<svg width="1900" height="950" viewBox="0 0 1900 950" fill="none" xmlns="http://www.w3.org/2000/svg">
<g clip-path="url(#clip0_385_276)">
<rect width="1900" height="950" rx="50" fill="#191919"/>
<rect x="100" y="950" width="950" height="100" transform="rotate(-90 100 950)" fill="url(#paint0_linear_385_276)"/>
<path d="M314.27 486V363.466H386.56V380.812H334.607V410.377H353.833C367.505 410.377 378.044 413.568 385.449 419.948C392.912 426.271 396.643 435.272 396.643 446.95C396.643 459.425 392.684 469.053 384.766 475.832C376.847 482.611 365.625 486 351.099 486H314.27ZM334.607 469.508H349.219C357.536 469.508 363.916 467.628 368.359 463.869C372.86 460.052 375.11 454.64 375.11 447.633C375.11 441.025 372.945 435.927 368.616 432.338C364.286 428.749 358.134 426.926 350.159 426.869H334.607V469.508ZM416.98 486V363.466H437.061V439.772C437.061 443.532 437.004 446.551 436.89 448.83C436.833 451.108 436.662 453.9 436.377 457.204H436.719C437.516 455.722 438.257 454.412 438.94 453.273C439.681 452.077 440.792 450.425 442.273 448.317L500.891 363.466H521.057V486H500.977V409.694C500.977 405.934 501.005 402.915 501.062 400.636C501.176 398.358 501.375 395.566 501.66 392.262H501.318C500.521 393.743 499.752 395.082 499.011 396.278C498.328 397.418 497.274 399.041 495.85 401.149L437.146 486H416.98ZM541.907 466.261L557.715 457.118C560.164 462.131 563.497 465.806 567.712 468.141C571.928 470.42 576.827 471.559 582.41 471.559C589.815 471.559 595.626 469.822 599.841 466.347C604.057 462.872 606.165 457.916 606.165 451.479C606.165 445.041 603.63 440.085 598.56 436.61C593.49 433.135 586.255 431.369 576.855 431.312H564.551V414.394H575.916C584.517 414.394 591.182 412.713 595.911 409.352C600.696 405.934 603.088 401.12 603.088 394.911C603.088 389.442 601.322 385.227 597.791 382.265C594.316 379.302 589.53 377.821 583.435 377.821C578.422 377.821 574.064 378.875 570.361 380.983C566.659 383.091 563.668 386.423 561.389 390.98L545.752 383.632C548.999 376.397 554.041 370.9 560.876 367.14C567.712 363.323 575.745 361.415 584.973 361.415C597.335 361.415 606.905 364.121 613.684 369.533C620.52 374.944 623.938 382.635 623.938 392.604C623.938 399.725 621.944 405.82 617.957 410.89C613.969 415.903 608.358 419.521 601.123 421.742V422.084C609.383 423.622 615.735 426.898 620.178 431.911C624.679 436.924 626.929 443.332 626.929 451.137C626.929 462.986 623.055 472.1 615.308 478.48C607.617 484.861 596.822 488.051 582.922 488.051C573.409 488.051 565.149 486.256 558.142 482.667C551.192 479.022 545.78 473.553 541.907 466.261ZM747.156 486H726.733V433.107H669.055V486H648.718V363.466H669.055V414.992H726.733V363.466H747.156V486ZM844.482 486H775.696V363.466H841.748V380.897H796.033V415.333H838.416V432.68H796.033V468.568H844.482V486ZM966.931 458.827C962.773 467.372 956.421 474.379 947.876 479.848C939.388 485.316 929.134 488.051 917.114 488.051C898.999 488.051 884.387 482.582 873.279 471.645C862.227 460.707 856.702 445.896 856.702 427.211C856.702 407.444 862.256 391.55 873.364 379.53C884.53 367.453 898.914 361.415 916.516 361.415C928.479 361.415 938.619 364.121 946.936 369.533C955.31 374.944 961.605 382.493 965.82 392.177L947.961 399.184C944.771 392.576 940.584 387.676 935.4 384.486C930.273 381.239 924.064 379.616 916.772 379.616C905.493 379.616 896.208 383.917 888.916 392.519C881.681 401.063 878.064 412.172 878.064 425.844C878.064 439.345 881.653 450.026 888.831 457.887C896.065 465.749 905.721 469.679 917.798 469.679C925.374 469.679 931.783 467.999 937.024 464.638C942.265 461.22 946.366 456.492 949.329 450.453L966.931 458.827ZM985.815 445.497V430.885H1032.47V445.497H985.815ZM1057.34 486V363.466H1077.42V439.772C1077.42 443.532 1077.36 446.551 1077.25 448.83C1077.19 451.108 1077.02 453.9 1076.73 457.204H1077.08C1077.87 455.722 1078.61 454.412 1079.3 453.273C1080.04 452.077 1081.15 450.425 1082.63 448.317L1141.25 363.466H1161.41V486H1141.33V409.694C1141.33 405.934 1141.36 402.915 1141.42 400.636C1141.53 398.358 1141.73 395.566 1142.02 392.262H1141.67C1140.88 393.743 1140.11 395.082 1139.37 396.278C1138.68 397.418 1137.63 399.041 1136.21 401.149L1077.5 486H1057.34ZM1257.97 381.068H1210.55V486H1190.12V363.466H1257.97V381.068ZM1294.54 443.361V486H1274.21V363.466H1311.98C1326.05 363.466 1336.84 366.77 1344.36 373.378C1351.94 379.929 1355.73 389.385 1355.73 401.747C1355.73 414.337 1351.51 424.42 1343.08 431.996C1334.65 439.573 1323.28 443.361 1308.98 443.361H1294.54ZM1294.54 380.128V426.613H1308.04C1316.53 426.613 1323.03 424.534 1327.53 420.375C1332.08 416.16 1334.36 410.235 1334.36 402.602C1334.36 395.253 1332.23 389.67 1327.95 385.854C1323.74 382.037 1317.47 380.128 1309.16 380.128H1294.54ZM1348.97 486L1394.6 363.466H1417.5L1462.79 486H1440.92L1430.32 456.947H1380.93L1370.76 486H1348.97ZM1386.4 439.687H1424.77L1408.02 391.066C1407.56 389.813 1407.17 388.702 1406.82 387.733C1406.54 386.708 1406.2 385.455 1405.8 383.974H1405.37C1404.92 385.341 1404.55 386.537 1404.26 387.562C1403.98 388.588 1403.61 389.756 1403.15 391.066L1386.4 439.687Z" fill="#F0EFED"/>
<path d="M336.528 580.702H328.755L317.37 568.441L328.755 555.888H336.564L324.924 568.441L336.528 580.702ZM321.493 580.702H313.757L302.335 568.441L313.757 555.888H321.493L309.926 568.441L321.493 580.702ZM405.059 588H344.994V535.671H353.679V580.41H370.684V535.671H379.332V580.41H396.337V535.671H405.059V588ZM456.73 588H445.527L427.574 564.937C427.257 564.548 426.99 564.195 426.771 563.879C426.576 563.539 426.382 563.21 426.187 562.894H426.005V588H417.32V535.671H426.005V559.719H426.187C426.357 559.427 426.552 559.123 426.771 558.807C427.014 558.466 427.294 558.089 427.61 557.676L445.199 535.671H455.198L434.762 560.595L456.73 588ZM482.019 588.876C474.55 588.876 468.468 586.443 463.773 581.578C459.078 576.688 456.73 570.326 456.73 562.493C456.73 554.173 459.139 547.482 463.956 542.422C468.772 537.338 475.073 534.796 482.858 534.796C490.205 534.796 496.153 537.228 500.702 542.094C505.276 546.935 507.563 553.345 507.563 561.325C507.563 569.548 505.191 576.201 500.447 581.286C495.727 586.346 489.585 588.876 482.019 588.876ZM482.092 581.14C487.006 581.14 490.959 579.412 493.951 575.958C496.944 572.479 498.44 567.845 498.44 562.055C498.44 556.07 496.98 551.326 494.061 547.823C491.142 544.32 487.286 542.568 482.493 542.568C477.506 542.568 473.48 544.332 470.415 547.86C467.374 551.387 465.853 556.07 465.853 561.909C465.853 567.699 467.361 572.357 470.378 575.885C473.395 579.388 477.299 581.14 482.092 581.14ZM555.695 588H547.01V543.152H529.603V560.011C529.603 567.334 529.202 572.953 528.399 576.87C527.621 580.787 526.319 583.658 524.495 585.482C523.278 586.698 521.952 587.562 520.517 588.073C519.106 588.608 517.367 588.876 515.299 588.876C514.35 588.876 513.462 588.803 512.635 588.657C511.808 588.535 511.042 588.341 510.336 588.073L512.234 580.994C512.623 581.115 512.976 581.213 513.292 581.286C513.632 581.334 514.022 581.359 514.46 581.359C515.311 581.359 516.041 581.249 516.649 581.03C517.257 580.787 517.829 580.398 518.364 579.862C519.483 578.743 520.274 576.603 520.736 573.44C521.223 570.253 521.466 565.485 521.466 559.135V535.671H555.695V588ZM562.446 588L581.932 535.671H591.712L611.052 588H601.71L597.185 575.593H576.093L571.751 588H562.446ZM578.429 568.222H594.813L587.661 547.458C587.467 546.923 587.296 546.449 587.15 546.035C587.029 545.597 586.883 545.062 586.712 544.429H586.53C586.335 545.013 586.177 545.524 586.056 545.962C585.934 546.4 585.776 546.899 585.581 547.458L578.429 568.222ZM643.967 588H635.246V535.671H677.466V588H668.745V543.444H643.967V588ZM698.23 569.791V588H689.545V535.671H705.674C711.683 535.671 716.293 537.082 719.504 539.904C722.74 542.702 724.358 546.74 724.358 552.02C724.358 557.396 722.557 561.702 718.957 564.937C715.356 568.173 710.503 569.791 704.397 569.791H698.23ZM698.23 542.787V562.639H703.995C707.62 562.639 710.394 561.751 712.316 559.975C714.262 558.174 715.235 555.644 715.235 552.384C715.235 549.246 714.323 546.862 712.498 545.232C710.698 543.602 708.022 542.787 704.47 542.787H698.23ZM761.907 588H732.532V535.671H760.739V543.116H741.217V557.822H759.316V565.229H741.217V580.556H761.907V588ZM767.198 598.984V580.41H771.833C773.974 576.323 775.543 571.664 776.54 566.434C777.538 561.179 778.036 555.292 778.036 548.772V535.671H811.207V580.41H818.396V598.984H810.477V588H775.154V598.984H767.198ZM780.81 580.41H802.559V543.152H786.101V549.611C786.101 556.18 785.675 562.018 784.824 567.127C783.972 572.211 782.634 576.639 780.81 580.41ZM835.474 588H826.752V535.671H868.973V588H860.251V543.444H835.474V588ZM889.736 569.791V588H881.051V535.671H897.181C903.189 535.671 907.8 537.082 911.011 539.904C914.246 542.702 915.864 546.74 915.864 552.02C915.864 557.396 914.064 561.702 910.463 564.937C906.863 568.173 902.01 569.791 895.903 569.791H889.736ZM889.736 542.787V562.639H895.502C899.127 562.639 901.9 561.751 903.822 559.975C905.768 558.174 906.741 555.644 906.741 552.384C906.741 549.246 905.829 546.862 904.004 545.232C902.204 543.602 899.528 542.787 895.976 542.787H889.736ZM924.038 588V535.671H932.614V568.258C932.614 569.864 932.589 571.153 932.541 572.126C932.516 573.099 932.443 574.291 932.322 575.702H932.468C932.808 575.07 933.125 574.51 933.416 574.024C933.733 573.513 934.207 572.807 934.84 571.907L959.873 535.671H968.485V588H959.909V555.413C959.909 553.808 959.921 552.518 959.946 551.545C959.994 550.572 960.079 549.38 960.201 547.969H960.055C959.715 548.602 959.386 549.173 959.07 549.684C958.778 550.171 958.328 550.864 957.72 551.764L932.65 588H924.038ZM1022.78 588H1014.06V565.412H989.431V588H980.746V535.671H989.431V557.676H1014.06V535.671H1022.78V588ZM1034.97 588V535.671H1043.55V568.258C1043.55 569.864 1043.52 571.153 1043.47 572.126C1043.45 573.099 1043.38 574.291 1043.26 575.702H1043.4C1043.74 575.07 1044.06 574.51 1044.35 574.024C1044.67 573.513 1045.14 572.807 1045.77 571.907L1070.81 535.671H1079.42V588H1070.84V555.413C1070.84 553.808 1070.85 552.518 1070.88 551.545C1070.93 550.572 1071.01 549.38 1071.13 547.969H1070.99C1070.65 548.602 1070.32 549.173 1070 549.684C1069.71 550.171 1069.26 550.864 1068.65 551.764L1043.58 588H1034.97ZM1147.95 588H1139.34V554.61C1139.34 553.224 1139.35 551.898 1139.37 550.633C1139.4 549.344 1139.43 547.884 1139.48 546.254H1139.3C1139.06 546.959 1138.84 547.592 1138.64 548.151C1138.45 548.687 1138.24 549.258 1138.02 549.867L1122.66 588H1116.68L1101.28 550.195C1101.06 549.66 1100.84 549.112 1100.62 548.553C1100.43 547.969 1100.17 547.203 1099.85 546.254H1099.63C1099.71 547.714 1099.76 549.21 1099.78 550.742C1099.8 552.251 1099.82 553.905 1099.82 555.705V588H1091.68V535.671H1104.01L1117.62 569.681C1118.14 570.946 1118.55 572.017 1118.87 572.893C1119.18 573.744 1119.5 574.681 1119.81 575.702H1120.03C1120.45 574.535 1120.84 573.476 1121.2 572.528C1121.57 571.579 1121.94 570.594 1122.33 569.572L1136.16 535.671H1147.95V588ZM1154.63 588L1174.11 535.671H1183.89L1203.23 588H1193.89L1189.37 575.593H1168.27L1163.93 588H1154.63ZM1170.61 568.222H1186.99L1179.84 547.458C1179.65 546.923 1179.48 546.449 1179.33 546.035C1179.21 545.597 1179.06 545.062 1178.89 544.429H1178.71C1178.52 545.013 1178.36 545.524 1178.24 545.962C1178.12 546.4 1177.96 546.899 1177.76 547.458L1170.61 568.222ZM1237.5 543.043H1222.87V588H1214.18V543.043H1199.58V535.671H1237.5V543.043ZM1274.61 588H1245.23V535.671H1273.44V543.116H1253.92V557.822H1272.02V565.229H1253.92V580.556H1274.61V588ZM1325.08 588H1316.39V543.152H1298.99V560.011C1298.99 567.334 1298.59 572.953 1297.78 576.87C1297 580.787 1295.7 583.658 1293.88 585.482C1292.66 586.698 1291.34 587.562 1289.9 588.073C1288.49 588.608 1286.75 588.876 1284.68 588.876C1283.73 588.876 1282.85 588.803 1282.02 588.657C1281.19 588.535 1280.42 588.341 1279.72 588.073L1281.62 580.994C1282.01 581.115 1282.36 581.213 1282.67 581.286C1283.02 581.334 1283.4 581.359 1283.84 581.359C1284.69 581.359 1285.42 581.249 1286.03 581.03C1286.64 580.787 1287.21 580.398 1287.75 579.862C1288.87 578.743 1289.66 576.603 1290.12 573.44C1290.61 570.253 1290.85 565.485 1290.85 559.135V535.671H1325.08V588ZM1366.71 588H1337.34V535.671H1365.55V543.116H1346.02V557.822H1364.12V565.229H1346.02V580.556H1366.71V588ZM1375.29 588V535.671H1383.87V568.258C1383.87 569.864 1383.84 571.153 1383.79 572.126C1383.77 573.099 1383.7 574.291 1383.57 575.702H1383.72C1384.06 575.07 1384.38 574.51 1384.67 574.024C1384.98 573.513 1385.46 572.807 1386.09 571.907L1411.12 535.671H1419.74V588H1411.16V555.413C1411.16 553.808 1411.17 552.518 1411.2 551.545C1411.25 550.572 1411.33 549.38 1411.45 547.969H1411.31C1410.97 548.602 1410.64 549.173 1410.32 549.684C1410.03 550.171 1409.58 550.864 1408.97 551.764L1383.9 588H1375.29ZM1408.79 520.528C1408.42 524.152 1407.22 526.926 1405.18 528.848C1403.13 530.769 1400.34 531.73 1396.78 531.73C1393.21 531.73 1390.4 530.769 1388.35 528.848C1386.31 526.926 1385.12 524.152 1384.78 520.528H1390.94C1391.16 522.863 1391.77 524.566 1392.77 525.636C1393.77 526.707 1395.1 527.242 1396.78 527.242C1398.44 527.242 1399.76 526.707 1400.76 525.636C1401.78 524.566 1402.42 522.863 1402.66 520.528H1408.79ZM1451.12 580.702H1443.38L1454.91 568.368L1443.42 555.888H1451.12L1462.54 568.368L1451.12 580.702ZM1436.05 580.702H1428.2L1439.92 568.368L1428.24 555.888H1436.05L1447.47 568.368L1436.05 580.702Z" fill="#F0EFED"/>
<rect x="2.5" y="2.5" width="1895" height="945" rx="47.5" stroke="#30302E" stroke-width="5"/>
</g>
<defs>
<linearGradient id="paint0_linear_385_276" x1="1050" y1="1000" x2="100" y2="1000" gradientUnits="userSpaceOnUse">
<stop stop-color="#191919"/>
<stop offset="1" stop-color="#358C5C"/>
</linearGradient>
<clipPath id="clip0_385_276">
<rect width="1900" height="950" rx="50" fill="white"/>
</clipPath>
</defs>
</svg>
