<svg width="1900" height="950" viewBox="0 0 1900 950" fill="none" xmlns="http://www.w3.org/2000/svg">
<g clip-path="url(#clip0_430_2)">
<rect width="1900" height="950" rx="50" fill="#191919"/>
<rect x="100" y="950" width="950" height="100" transform="rotate(-90 100 950)" fill="url(#paint0_linear_430_2)"/>
<path d="M406.555 274H380.322L338.281 219.996C337.541 219.085 336.914 218.259 336.401 217.518C335.946 216.721 335.49 215.951 335.034 215.211H334.607V274H314.27V151.466H334.607V207.777H335.034C335.433 207.093 335.889 206.381 336.401 205.641C336.971 204.843 337.626 203.96 338.367 202.992L379.553 151.466H402.966L355.115 209.828L406.555 274ZM409.375 274L455.005 151.466H477.905L523.193 274H501.318L490.723 244.947H441.333L431.165 274H409.375ZM446.802 227.687H485.168L468.42 179.066C467.965 177.813 467.566 176.702 467.224 175.733C466.939 174.708 466.597 173.455 466.199 171.974H465.771C465.316 173.341 464.945 174.537 464.661 175.562C464.376 176.588 464.006 177.756 463.55 179.066L446.802 227.687ZM603.43 168.727H569.165V274H548.828V168.727H514.648V151.466H603.43V168.727ZM596.167 274L641.797 151.466H664.697L709.985 274H688.11L677.515 244.947H628.125L617.957 274H596.167ZM633.594 227.687H671.96L655.212 179.066C654.757 177.813 654.358 176.702 654.016 175.733C653.731 174.708 653.389 173.455 652.991 171.974H652.563C652.108 173.341 651.737 174.537 651.453 175.562C651.168 176.588 650.798 177.756 650.342 179.066L633.594 227.687ZM825.769 274H805.432V168.983H764.673V208.46C764.673 225.607 763.733 238.766 761.853 247.938C760.03 257.11 756.982 263.832 752.71 268.104C749.862 270.952 746.757 272.975 743.396 274.171C740.092 275.424 736.019 276.051 731.177 276.051C728.955 276.051 726.876 275.88 724.939 275.538C723.002 275.253 721.208 274.798 719.556 274.171L723.999 257.594C724.91 257.879 725.736 258.106 726.477 258.277C727.275 258.391 728.186 258.448 729.211 258.448C731.205 258.448 732.914 258.192 734.338 257.679C735.763 257.11 737.101 256.198 738.354 254.945C740.975 252.324 742.826 247.311 743.909 239.906C745.048 232.443 745.618 221.278 745.618 206.41V151.466H825.769V274ZM905.835 276.051C888.346 276.051 874.105 270.354 863.11 258.961C852.116 247.511 846.619 232.614 846.619 214.271C846.619 194.789 852.258 179.123 863.538 167.274C874.817 155.368 889.571 149.415 907.8 149.415C925.004 149.415 938.932 155.112 949.585 166.505C960.295 177.841 965.649 192.852 965.649 211.537C965.649 230.791 960.095 246.371 948.987 258.277C937.935 270.126 923.551 276.051 905.835 276.051ZM906.006 257.936C917.513 257.936 926.77 253.891 933.777 245.802C940.784 237.656 944.287 226.804 944.287 213.246C944.287 199.232 940.869 188.124 934.033 179.92C927.197 171.717 918.168 167.616 906.946 167.616C895.268 167.616 885.84 171.746 878.662 180.006C871.541 188.266 867.981 199.232 867.981 212.904C867.981 226.462 871.513 237.371 878.577 245.631C885.64 253.834 894.784 257.936 906.006 257.936ZM1054.26 169.068H1006.84V274H986.414V151.466H1054.26V169.068ZM314.27 449V326.466H386.56V343.812H334.607V373.377H353.833C367.505 373.377 378.044 376.568 385.449 382.948C392.912 389.271 396.643 398.272 396.643 409.95C396.643 422.425 392.684 432.053 384.766 438.832C376.847 445.611 365.625 449 351.099 449H314.27ZM334.607 432.508H349.219C357.536 432.508 363.916 430.628 368.359 426.869C372.86 423.052 375.11 417.64 375.11 410.633C375.11 404.025 372.945 398.927 368.616 395.338C364.286 391.749 358.134 389.926 350.159 389.869H334.607V432.508ZM437.317 406.361V449H416.98V326.466H454.749C468.819 326.466 479.614 329.77 487.134 336.378C494.71 342.929 498.499 352.385 498.499 364.747C498.499 377.337 494.283 387.42 485.852 394.996C477.421 402.573 466.056 406.361 451.758 406.361H437.317ZM437.317 343.128V389.613H450.818C459.306 389.613 465.8 387.534 470.3 383.375C474.858 379.16 477.136 373.235 477.136 365.602C477.136 358.253 475 352.67 470.728 348.854C466.512 345.037 460.246 343.128 451.929 343.128H437.317ZM586.426 449H517.639V326.466H583.691V343.897H537.976V378.333H580.359V395.68H537.976V431.568H586.426V449ZM704.944 449H684.521V396.107H626.843V449H606.506V326.466H626.843V377.992H684.521V326.466H704.944V449ZM721.008 474.72V431.227H731.86C736.873 421.656 740.548 410.747 742.883 398.5C745.219 386.195 746.387 372.409 746.387 357.142V326.466H824.06V431.227H840.894V474.72H822.351V449H739.636V474.72H721.008ZM752.881 431.227H803.809V343.983H765.271V359.107C765.271 374.488 764.274 388.16 762.28 400.123C760.286 412.029 757.153 422.397 752.881 431.227ZM847.559 449L893.188 326.466H916.089L961.377 449H939.502L928.906 419.947H879.517L869.348 449H847.559ZM884.985 402.687H923.352L906.604 354.066C906.148 352.813 905.75 351.702 905.408 350.733C905.123 349.708 904.781 348.455 904.382 346.974H903.955C903.499 348.341 903.129 349.537 902.844 350.562C902.559 351.588 902.189 352.756 901.733 354.066L884.985 402.687ZM373.401 624V564.271H372.974C372.404 565.41 371.863 566.436 371.35 567.347C370.837 568.202 370.353 568.942 369.897 569.569L327.344 624H301.367L353.064 559.913L305.298 501.466H329.395L369.727 553.163C370.41 554.188 371.037 555.156 371.606 556.068C372.176 556.979 372.632 557.805 372.974 558.546H373.401V501.466H392.969V558.546H393.396C393.795 557.805 394.25 557.008 394.763 556.153C395.333 555.242 395.988 554.245 396.729 553.163L436.975 501.466H461.072L413.306 559.913L464.917 624H439.026L396.643 569.654C396.13 569.028 395.589 568.259 395.02 567.347C394.507 566.436 393.966 565.41 393.396 564.271H392.969V624H373.401ZM549.341 624H480.554V501.466H546.606V518.897H500.891V553.333H543.274V570.68H500.891V606.568H549.341V624ZM667.859 624H647.437V571.107H589.758V624H569.421V501.466H589.758V552.992H647.437V501.466H667.859V624ZM798.767 596.827C794.609 605.372 788.257 612.379 779.712 617.848C771.224 623.316 760.97 626.051 748.95 626.051C730.835 626.051 716.223 620.582 705.115 609.645C694.063 598.707 688.538 583.896 688.538 565.211C688.538 545.444 694.092 529.55 705.2 517.53C716.366 505.453 730.75 499.415 748.352 499.415C760.315 499.415 770.455 502.121 778.772 507.533C787.146 512.944 793.441 520.493 797.656 530.177L779.797 537.184C776.607 530.576 772.42 525.676 767.236 522.486C762.109 519.239 755.9 517.616 748.608 517.616C737.329 517.616 728.044 521.917 720.752 530.519C713.517 539.063 709.9 550.172 709.9 563.844C709.9 577.345 713.489 588.026 720.667 595.887C727.901 603.749 737.557 607.679 749.634 607.679C757.21 607.679 763.619 605.999 768.86 602.638C774.101 599.22 778.202 594.492 781.165 588.453L798.767 596.827ZM912.756 624H886.523L844.482 569.996C843.742 569.085 843.115 568.259 842.603 567.518C842.147 566.721 841.691 565.951 841.235 565.211H840.808V624H820.471V501.466H840.808V557.777H841.235C841.634 557.093 842.09 556.381 842.603 555.641C843.172 554.843 843.827 553.96 844.568 552.992L885.754 501.466H909.167L861.316 559.828L912.756 624ZM971.973 626.051C954.484 626.051 940.243 620.354 929.248 608.961C918.254 597.511 912.756 582.614 912.756 564.271C912.756 544.789 918.396 529.123 929.675 517.274C940.955 505.368 955.709 499.415 973.938 499.415C991.142 499.415 1005.07 505.112 1015.72 516.505C1026.43 527.841 1031.79 542.852 1031.79 561.537C1031.79 580.791 1026.23 596.371 1015.12 608.277C1004.07 620.126 989.689 626.051 971.973 626.051ZM972.144 607.936C983.651 607.936 992.908 603.891 999.915 595.802C1006.92 587.656 1010.42 576.804 1010.42 563.246C1010.42 549.232 1007.01 538.124 1000.17 529.92C993.335 521.717 984.306 517.616 973.083 517.616C961.405 517.616 951.978 521.746 944.8 530.006C937.679 538.266 934.119 549.232 934.119 562.904C934.119 576.462 937.651 587.371 944.714 595.631C951.778 603.834 960.921 607.936 972.144 607.936ZM1052.55 624V501.466H1072.63V577.772C1072.63 581.532 1072.57 584.551 1072.46 586.83C1072.4 589.108 1072.23 591.9 1071.95 595.204H1072.29C1073.09 593.722 1073.83 592.412 1074.51 591.273C1075.25 590.077 1076.36 588.425 1077.84 586.317L1136.46 501.466H1156.63V624H1136.55V547.694C1136.55 543.934 1136.58 540.915 1136.63 538.636C1136.75 536.358 1136.95 533.566 1137.23 530.262H1136.89C1136.09 531.743 1135.32 533.082 1134.58 534.278C1133.9 535.418 1132.85 537.041 1131.42 539.149L1072.72 624H1052.55ZM1130.99 466.004C1130.14 474.492 1127.32 480.986 1122.53 485.487C1117.75 489.987 1111.2 492.237 1102.88 492.237C1094.51 492.237 1087.93 489.987 1083.14 485.487C1078.36 480.986 1075.57 474.492 1074.77 466.004H1089.21C1089.72 471.473 1091.15 475.461 1093.48 477.967C1095.82 480.474 1098.95 481.727 1102.88 481.727C1106.75 481.727 1109.86 480.474 1112.19 477.967C1114.59 475.461 1116.07 471.473 1116.64 466.004H1130.99ZM365.625 801.051C348.136 801.051 333.895 795.354 322.9 783.961C311.906 772.511 306.409 757.614 306.409 739.271C306.409 719.789 312.048 704.123 323.328 692.274C334.607 680.368 349.361 674.415 367.59 674.415C384.794 674.415 398.722 680.112 409.375 691.505C420.085 702.841 425.439 717.852 425.439 736.537C425.439 755.791 419.885 771.371 408.777 783.277C397.725 795.126 383.341 801.051 365.625 801.051ZM365.796 782.936C377.303 782.936 386.56 778.891 393.567 770.802C400.574 762.656 404.077 751.804 404.077 738.246C404.077 724.232 400.659 713.124 393.823 704.92C386.987 696.717 377.958 692.616 366.736 692.616C355.058 692.616 345.63 696.746 338.452 705.006C331.331 713.266 327.771 724.232 327.771 737.904C327.771 751.462 331.303 762.371 338.367 770.631C345.431 778.834 354.574 782.936 365.796 782.936ZM432.361 824.72V781.227H443.213C448.226 771.656 451.9 760.747 454.236 748.5C456.571 736.195 457.739 722.409 457.739 707.142V676.466H535.413V781.227H552.246V824.72H533.704V799H450.989V824.72H432.361ZM464.233 781.227H515.161V693.983H476.624V709.107C476.624 724.488 475.627 738.16 473.633 750.123C471.639 762.029 468.506 772.397 464.233 781.227ZM640.601 799H571.814V676.466H637.866V693.897H592.151V728.333H634.534V745.68H592.151V781.568H640.601V799ZM720.837 799V739.271H720.41C719.84 740.41 719.299 741.436 718.787 742.347C718.274 743.202 717.79 743.942 717.334 744.569L674.78 799H648.804L700.5 734.913L652.734 676.466H676.831L717.163 728.163C717.847 729.188 718.473 730.156 719.043 731.068C719.613 731.979 720.068 732.805 720.41 733.546H720.837V676.466H740.405V733.546H740.833C741.231 732.805 741.687 732.008 742.2 731.153C742.769 730.242 743.424 729.245 744.165 728.163L784.412 676.466H808.508L760.742 734.913L812.354 799H786.462L744.08 744.654C743.567 744.028 743.026 743.259 742.456 742.347C741.943 741.436 741.402 740.41 740.833 739.271H740.405V799H720.837ZM819.275 824.72V781.227H830.127C835.14 771.656 838.814 760.747 841.15 748.5C843.486 736.195 844.653 722.409 844.653 707.142V676.466H922.327V781.227H939.16V824.72H920.618V799H837.903V824.72H819.275ZM851.147 781.227H902.075V693.983H863.538V709.107C863.538 724.488 862.541 738.16 860.547 750.123C858.553 762.029 855.42 772.397 851.147 781.227ZM1054.35 799V676.466H1074.6V799H1054.35ZM958.728 799V676.466H979.065V719.361H996.155C1010.05 719.361 1020.76 722.694 1028.28 729.359C1035.86 736.024 1039.65 745.537 1039.65 757.899C1039.65 771.058 1035.63 781.198 1027.6 788.319C1019.57 795.44 1008.15 799 993.335 799H958.728ZM979.065 782.423H991.541C1000.09 782.423 1006.67 780.372 1011.28 776.271C1015.89 772.112 1018.2 766.244 1018.2 758.668C1018.2 751.433 1015.98 745.851 1011.54 741.92C1007.09 737.989 1000.74 736.024 992.48 736.024L979.065 736.109V782.423Z" fill="#F0EFED"/>
<rect x="2.5" y="2.5" width="1895" height="945" rx="47.5" stroke="#30302E" stroke-width="5"/>
</g>
<defs>
<linearGradient id="paint0_linear_430_2" x1="1050" y1="1000" x2="100" y2="1000" gradientUnits="userSpaceOnUse">
<stop stop-color="#191919"/>
<stop offset="1" stop-color="#C54079"/>
</linearGradient>
<clipPath id="clip0_430_2">
<rect width="1900" height="950" rx="50" fill="white"/>
</clipPath>
</defs>
</svg>
