<svg width="1900" height="950" viewBox="0 0 1900 950" fill="none" xmlns="http://www.w3.org/2000/svg">
<g clip-path="url(#clip0_430_16)">
<rect width="1900" height="950" rx="50" fill="#191919"/>
<rect x="100" y="950" width="950" height="100" transform="rotate(-90 100 950)" fill="url(#paint0_linear_430_16)"/>
<path d="M301.367 362L346.997 239.466H369.897L415.186 362H393.311L382.715 332.947H333.325L323.157 362H301.367ZM338.794 315.687H377.161L360.413 267.066C359.957 265.813 359.558 264.702 359.216 263.733C358.931 262.708 358.59 261.455 358.191 259.974H357.764C357.308 261.341 356.938 262.537 356.653 263.562C356.368 264.588 355.998 265.756 355.542 267.066L338.794 315.687ZM430.823 362V239.466H450.903V315.772C450.903 319.532 450.846 322.551 450.732 324.83C450.675 327.108 450.505 329.9 450.22 333.204H450.562C451.359 331.722 452.1 330.412 452.783 329.273C453.524 328.077 454.635 326.425 456.116 324.317L514.734 239.466H534.9V362H514.819V285.694C514.819 281.934 514.848 278.915 514.905 276.636C515.019 274.358 515.218 271.566 515.503 268.262H515.161C514.364 269.743 513.595 271.082 512.854 272.278C512.17 273.418 511.117 275.041 509.692 277.149L450.989 362H430.823ZM509.265 204.004C508.411 212.492 505.591 218.986 500.806 223.487C496.021 227.987 489.469 230.237 481.152 230.237C472.778 230.237 466.199 227.987 461.414 223.487C456.628 218.986 453.837 212.492 453.04 204.004H467.48C467.993 209.473 469.417 213.461 471.753 215.967C474.089 218.474 477.222 219.727 481.152 219.727C485.026 219.727 488.131 218.474 490.466 215.967C492.859 213.461 494.34 209.473 494.91 204.004H509.265ZM551.135 387.72V344.227H561.987C567 334.656 570.675 323.747 573.01 311.5C575.346 299.195 576.514 285.409 576.514 270.142V239.466H654.187V344.227H671.021V387.72H652.478V362H569.763V387.72H551.135ZM583.008 344.227H633.936V256.983H595.398V272.107C595.398 287.488 594.401 301.16 592.407 313.123C590.413 325.029 587.28 335.397 583.008 344.227ZM759.375 362H690.588V239.466H756.641V256.897H710.925V291.333H753.308V308.68H710.925V344.568H759.375V362ZM877.893 362H857.471V309.107H799.792V362H779.456V239.466H799.792V290.992H857.471V239.466H877.893V362ZM983.167 256.727H948.901V362H928.564V256.727H894.385V239.466H983.167V256.727ZM1001.28 362V239.466H1021.36V315.772C1021.36 319.532 1021.31 322.551 1021.19 324.83C1021.13 327.108 1020.96 329.9 1020.68 333.204H1021.02C1021.82 331.722 1022.56 330.412 1023.24 329.273C1023.98 328.077 1025.09 326.425 1026.57 324.317L1085.19 239.466H1105.36V362H1085.28V285.694C1085.28 281.934 1085.31 278.915 1085.36 276.636C1085.48 274.358 1085.68 271.566 1085.96 268.262H1085.62C1084.82 269.743 1084.05 271.082 1083.31 272.278C1082.63 273.418 1081.58 275.041 1080.15 277.149L1021.45 362H1001.28ZM1226.35 362H1200.12L1158.08 307.996C1157.34 307.085 1156.71 306.259 1156.2 305.518C1155.75 304.721 1155.29 303.951 1154.83 303.211H1154.41V362H1134.07V239.466H1154.41V295.777H1154.83C1155.23 295.093 1155.69 294.381 1156.2 293.641C1156.77 292.843 1157.43 291.96 1158.17 290.992L1199.35 239.466H1222.77L1174.91 297.828L1226.35 362ZM1229.17 362L1274.8 239.466H1297.71L1342.99 362H1321.12L1310.52 332.947H1261.13L1250.96 362H1229.17ZM1266.6 315.687H1304.97L1288.22 267.066C1287.76 265.813 1287.37 264.702 1287.02 263.733C1286.74 262.708 1286.4 261.455 1286 259.974H1285.57C1285.12 261.341 1284.75 262.537 1284.46 263.562C1284.18 264.588 1283.81 265.756 1283.35 267.066L1266.6 315.687ZM314.27 537V414.466H386.56V431.812H334.607V461.377H353.833C367.505 461.377 378.044 464.568 385.449 470.948C392.912 477.271 396.643 486.272 396.643 497.95C396.643 510.425 392.684 520.053 384.766 526.832C376.847 533.611 365.625 537 351.099 537H314.27ZM334.607 520.508H349.219C357.536 520.508 363.916 518.628 368.359 514.869C372.86 511.052 375.11 505.64 375.11 498.633C375.11 492.025 372.945 486.927 368.616 483.338C364.286 479.749 358.134 477.926 350.159 477.869H334.607V520.508ZM437.317 494.361V537H416.98V414.466H454.749C468.819 414.466 479.614 417.77 487.134 424.378C494.71 430.929 498.499 440.385 498.499 452.747C498.499 465.337 494.283 475.42 485.852 482.996C477.421 490.573 466.056 494.361 451.758 494.361H437.317ZM437.317 431.128V477.613H450.818C459.306 477.613 465.8 475.534 470.3 471.375C474.858 467.16 477.136 461.235 477.136 453.602C477.136 446.253 475 440.67 470.728 436.854C466.512 433.037 460.246 431.128 451.929 431.128H437.317ZM586.426 537H517.639V414.466H583.691V431.897H537.976V466.333H580.359V483.68H537.976V519.568H586.426V537ZM704.944 537H684.521V484.107H626.843V537H606.506V414.466H626.843V465.992H684.521V414.466H704.944V537ZM721.008 562.72V519.227H731.86C736.873 509.656 740.548 498.747 742.883 486.5C745.219 474.195 746.387 460.409 746.387 445.142V414.466H824.06V519.227H840.894V562.72H822.351V537H739.636V562.72H721.008ZM752.881 519.227H803.809V431.983H765.271V447.107C765.271 462.488 764.274 476.16 762.28 488.123C760.286 500.029 757.153 510.397 752.881 519.227ZM860.461 537V414.466H880.542V490.772C880.542 494.532 880.485 497.551 880.371 499.83C880.314 502.108 880.143 504.9 879.858 508.204H880.2C880.998 506.722 881.738 505.412 882.422 504.273C883.162 503.077 884.273 501.425 885.754 499.317L944.373 414.466H964.539V537H944.458V460.694C944.458 456.934 944.486 453.915 944.543 451.636C944.657 449.358 944.857 446.566 945.142 443.262H944.8C944.002 444.743 943.233 446.082 942.493 447.278C941.809 448.418 940.755 450.041 939.331 452.149L880.627 537H860.461ZM1091.69 537H1071.26V484.107H1013.59V537H993.25V414.466H1013.59V465.992H1071.26V414.466H1091.69V537ZM1188.07 432.068H1140.65V537H1120.23V414.466H1188.07V432.068ZM416.638 684.827C412.48 693.372 406.128 700.379 397.583 705.848C389.095 711.316 378.841 714.051 366.821 714.051C348.706 714.051 334.094 708.582 322.986 697.645C311.934 686.707 306.409 671.896 306.409 653.211C306.409 633.444 311.963 617.55 323.071 605.53C334.237 593.453 348.621 587.415 366.223 587.415C378.186 587.415 388.326 590.121 396.643 595.533C405.017 600.944 411.312 608.493 415.527 618.177L397.668 625.184C394.478 618.576 390.291 613.676 385.107 610.486C379.98 607.239 373.771 605.616 366.479 605.616C355.2 605.616 345.915 609.917 338.623 618.519C331.388 627.063 327.771 638.172 327.771 651.844C327.771 665.345 331.36 676.026 338.538 683.887C345.772 691.749 355.428 695.679 367.505 695.679C375.081 695.679 381.49 693.999 386.731 690.638C391.972 687.22 396.073 682.492 399.036 676.453L416.638 684.827ZM515.076 606.727H480.811V712H460.474V606.727H426.294V589.466H515.076V606.727ZM664.954 712H644.788V633.814C644.788 630.567 644.816 627.462 644.873 624.5C644.93 621.481 645.015 618.063 645.129 614.246H644.702C644.132 615.898 643.62 617.379 643.164 618.689C642.708 619.943 642.224 621.281 641.711 622.706L605.737 712H591.724L555.664 623.475C555.151 622.221 554.639 620.94 554.126 619.629C553.67 618.262 553.072 616.468 552.332 614.246H551.819C551.99 617.664 552.104 621.167 552.161 624.756C552.218 628.288 552.246 632.162 552.246 636.377V712H533.191V589.466H562.073L593.945 669.104C595.142 672.067 596.11 674.573 596.851 676.624C597.591 678.618 598.332 680.811 599.072 683.204H599.585C600.553 680.469 601.465 677.991 602.319 675.77C603.174 673.548 604.057 671.241 604.968 668.848L637.354 589.466H664.954V712Z" fill="#F0EFED"/>
<rect x="2.5" y="2.5" width="1895" height="945" rx="47.5" stroke="#30302E" stroke-width="5"/>
</g>
<defs>
<linearGradient id="paint0_linear_430_16" x1="1050" y1="1000" x2="100" y2="1000" gradientUnits="userSpaceOnUse">
<stop stop-color="#191919"/>
<stop offset="1" stop-color="#C54079"/>
</linearGradient>
<clipPath id="clip0_430_16">
<rect width="1900" height="950" rx="50" fill="white"/>
</clipPath>
</defs>
</svg>
