<svg width="1900" height="950" viewBox="0 0 1900 950" fill="none" xmlns="http://www.w3.org/2000/svg">
<g clip-path="url(#clip0_430_6)">
<rect width="1900" height="950" rx="50" fill="#191919"/>
<rect x="100" y="950" width="950" height="100" transform="rotate(-90 100 950)" fill="url(#paint0_linear_430_6)"/>
<path d="M314.27 537V414.466H352.466C373.942 414.466 390.12 419.393 401.001 429.249C411.938 439.104 417.407 454.086 417.407 474.195C417.407 493.62 411.454 508.944 399.548 520.167C387.699 531.389 371.749 537 351.697 537H314.27ZM334.607 431.897V519.568H350.842C365.027 519.568 376.107 515.723 384.082 508.033C392.057 500.285 396.045 489.12 396.045 474.537C396.045 460.295 392.257 449.642 384.68 442.579C377.104 435.458 365.938 431.897 351.184 431.897H334.607ZM458.508 537H438.171V414.466H458.508V537ZM585.571 524.354C579.647 528.74 572.782 532.3 564.978 535.035C557.174 537.712 549.056 539.051 540.625 539.051C521.769 539.051 506.816 533.497 495.764 522.388C484.713 511.28 479.187 496.326 479.187 477.527C479.187 458.216 484.713 442.55 495.764 430.53C506.816 418.453 521.171 412.415 538.831 412.415C550.338 412.415 560.022 414.694 567.883 419.251C575.745 423.751 581.698 429.904 585.742 437.708L568.738 445.911C565.719 440.613 561.759 436.683 556.86 434.119C551.961 431.556 546.293 430.274 539.856 430.274C528.292 430.274 518.864 434.404 511.572 442.664C504.338 450.924 500.72 462.033 500.72 475.989C500.72 490.288 504.338 501.396 511.572 509.314C518.864 517.233 528.463 521.192 540.369 521.192C544.983 521.192 549.455 520.622 553.784 519.483C558.114 518.287 561.93 516.549 565.234 514.271V488.892H538.062V471.375H585.571V524.354ZM631.116 537H610.779V414.466H631.116V537ZM736.389 431.727H702.124V537H681.787V431.727H647.607V414.466H736.389V431.727ZM728.271 537L773.901 414.466H796.802L842.09 537H820.215L809.619 507.947H760.229L750.061 537H728.271ZM765.698 490.687H804.065L787.317 442.066C786.861 440.813 786.462 439.702 786.121 438.733C785.836 437.708 785.494 436.455 785.095 434.974H784.668C784.212 436.341 783.842 437.537 783.557 438.562C783.272 439.588 782.902 440.756 782.446 442.066L765.698 490.687ZM925.574 537H857.727V414.466H878.064V519.397H925.574V537Z" fill="#F0EFED"/>
<rect x="2.5" y="2.5" width="1895" height="945" rx="47.5" stroke="#30302E" stroke-width="5"/>
</g>
<defs>
<linearGradient id="paint0_linear_430_6" x1="1050" y1="1000" x2="100" y2="1000" gradientUnits="userSpaceOnUse">
<stop stop-color="#191919"/>
<stop offset="1" stop-color="#C54079"/>
</linearGradient>
<clipPath id="clip0_430_6">
<rect width="1900" height="950" rx="50" fill="white"/>
</clipPath>
</defs>
</svg>
