<svg width="200" height="195" viewBox="0 0 200 195" fill="none" xmlns="http://www.w3.org/2000/svg">
<rect width="200" height="195" rx="30" fill="white"/>
<g clip-path="url(#clip0_357_19)">
<path d="M155.608 124.537C155.931 125.377 155.666 126.079 154.948 126.656C148.233 132.062 141.184 136.966 133.511 140.934L127.105 144.242C128.426 145.297 129.917 145.594 131.501 145.535C133.234 145.47 134.686 144.674 136.027 143.651C137.63 142.429 139.146 141.076 140.83 139.98C144.907 137.326 149.301 137.566 153.158 140.559C154.796 141.83 156.302 143.282 158.002 144.459C158.823 145.028 159.876 145.338 160.884 145.561L161.108 145.609C162.332 145.867 163.075 146.484 162.994 147.541C162.913 148.589 162.082 149.202 160.827 149.121C158.169 148.949 156.085 147.578 154.132 145.92C152.912 144.885 151.734 143.781 150.418 142.883C147.977 141.219 145.387 141.171 142.9 142.769C141.435 143.711 140.102 144.863 138.731 145.946C136.52 147.693 134.134 148.98 131.224 149.024C128.031 149.072 125.462 147.639 123.109 145.671C122.267 144.967 121.433 144.253 120.575 143.568C117.36 141.003 114.065 141.005 110.838 143.57C110.462 143.87 110.089 144.173 109.718 144.479L108.976 145.089C108.36 145.6 107.733 146.098 107.097 146.584C103.147 149.57 98.6228 149.713 94.5295 146.917C93.0403 145.9 91.6823 144.69 90.2619 143.57C87.0344 141.029 84.3557 141.036 81.0705 143.56L80.802 143.767L79.9963 144.389C78.9221 145.219 77.8405 146.042 76.7053 146.78C72.4279 149.561 68.0739 149.445 63.8225 146.757C62.0632 145.645 60.4572 144.29 58.7907 143.031L58.5403 142.842C57.8752 142.346 57.218 141.837 56.5354 141.366C55.5832 140.709 54.5578 140.525 53.5266 141.151C51.7043 142.257 49.9035 143.399 48.0988 144.534C46.3933 145.606 44.7453 146.785 42.9719 147.728C42.011 148.239 40.8567 148.477 39.7614 148.617C38.7419 148.747 38.0407 147.99 38.0017 147.035C37.9636 146.094 38.5778 145.504 39.5324 145.232L39.5881 145.217C40.6027 144.945 41.6482 144.601 42.5285 144.047C45.0124 142.485 47.4196 140.801 49.8542 139.161C49.9236 139.114 49.9636 139.026 50.0461 138.92L48.5349 136.062C48.0297 135.108 47.5263 134.152 47.0246 133.195C46.1457 131.517 46.7175 130.391 48.6052 130.256C53.6945 129.892 58.7873 129.58 63.8786 129.253L93.1858 127.372C100.113 126.926 107.04 126.476 113.967 126.029C123.735 125.399 133.504 124.769 143.273 124.139C145.87 123.972 148.468 123.809 151.066 123.639L153.663 123.467C154.558 123.407 155.276 123.677 155.608 124.537ZM148.176 127.505L148.089 127.292L51.1125 133.536L51.3518 133.983C51.9807 135.161 52.5373 136.224 53.1452 137.257C53.2014 137.353 53.3977 137.372 53.6032 137.38L53.8132 137.384L53.8762 137.387L53.9358 137.39C54.7785 137.452 55.6994 137.304 56.448 137.599C57.6423 138.071 58.7839 138.747 59.8366 139.492C61.7214 140.826 63.4655 142.363 65.3737 143.66C68.7653 145.963 71.9592 145.894 75.2956 143.559C76.7033 142.574 78.0388 141.485 79.4338 140.48C83.7951 137.338 87.927 137.403 92.1843 140.684C93.4284 141.643 94.6145 142.677 95.8562 143.638C98.9704 146.049 102.13 146.058 105.228 143.663C106.26 142.866 107.242 142.005 108.255 141.182C112.848 137.451 117.503 137.091 122.02 140.419L122.156 140.52C123.602 141.61 124.677 141.555 126.118 140.837L126.819 140.486C133.243 137.265 139.546 133.842 145.365 129.589C146.306 128.901 147.239 128.2 148.176 127.505ZM58.1257 45.3297C68.6218 50.0651 78.0476 56.4352 86.6145 64.0914C97.2736 73.6188 105.675 84.8688 111.88 97.7355C115.146 104.508 117.686 111.542 118.853 119.011L118.908 119.377L118.993 119.962C118.995 121.407 117.837 122.256 116.63 121.769C110.638 119.347 104.45 117.668 98.0564 116.709C89.6067 115.442 81.2629 115.757 73.0481 118.23C67.6003 119.871 62.4182 122.108 57.6027 125.161C56.7136 125.725 55.7707 125.627 55.1906 124.937C54.5871 124.22 54.5881 123.356 55.2849 122.599C60.3156 117.137 63.2429 110.577 65.1838 103.523C67.0798 96.631 67.7722 89.5885 67.3474 82.4635C67.0285 77.1085 65.7444 71.9269 64.0637 66.8404C61.8894 60.2599 59.0681 53.9694 55.6662 47.9357C55.1106 46.9493 55.1208 46.1813 55.6828 45.5504C56.2644 44.8971 57.0134 44.8278 58.1257 45.3297ZM90.4841 57.6305C91.4572 57.9142 92.7683 58.1945 94.0017 58.6739C98.925 60.5904 103.167 63.631 107.208 66.9528C113.775 72.3512 119.788 78.3224 125.166 84.9078C128.909 89.4913 131.979 94.5333 134.779 99.7374C137.952 105.639 140.686 111.74 143.006 118.026L143.167 118.464C143.229 118.631 143.292 118.798 143.348 118.966C143.592 119.693 143.562 120.396 142.993 120.951C142.412 121.518 141.715 121.556 140.979 121.268L140.927 121.247C139.873 120.814 138.803 120.414 137.751 119.976L137.301 119.786C134.339 118.514 131.295 118.26 128.16 118.972C127.871 119.038 127.578 119.088 127.285 119.133C126.122 119.312 125.396 118.858 125.078 117.732C122.025 106.899 117.72 96.5836 112.271 86.7418L111.998 86.2516C108.485 79.9737 104.462 74.0699 99.2346 69.0543C96.1482 66.0919 92.9001 63.3307 89.3127 60.9855C88.4817 60.442 88.1701 59.6876 88.4436 58.8644C88.7131 58.0548 89.3415 57.7364 90.4841 57.6305ZM61.2644 50.7565C61.2741 51.0304 61.3479 51.2447 61.4475 51.4449C63.7287 56.046 65.7126 60.7721 67.3235 65.6486C68.8518 70.2745 70.0237 74.9894 70.5852 79.838C71.2136 85.2648 70.9553 90.6778 70.2107 96.0753C69.2307 103.184 67.259 109.983 63.8586 116.333L63.4631 117.072L62.8635 118.197C62.989 118.231 63.0529 118.272 63.094 118.255C63.4523 118.114 63.808 117.967 64.1609 117.813C71.3777 114.645 78.8977 112.732 86.7961 112.535C95.8147 112.31 104.55 113.936 113.08 116.768L113.663 116.962C114.085 117.1 114.535 117.243 115.118 117.432C111.662 102.306 104.499 89.3043 94.8435 77.609C85.5354 66.3346 74.2141 57.525 61.2644 50.7565ZM104.118 69.0958L104.232 69.2252L104.459 69.4781C104.547 69.5768 104.627 69.6695 104.701 69.7662C105.233 70.4518 105.771 71.1322 106.315 71.8072L107.203 72.9117C108.537 74.5738 109.855 76.2477 111.013 78.024C118.34 89.2613 123.727 101.412 127.655 114.217L127.773 114.606C127.977 115.276 128.258 115.464 128.911 115.366L128.956 115.359C131.894 114.869 134.766 115.124 137.55 116.196L137.694 116.252C137.96 116.358 138.244 116.416 138.76 116.567C134.988 107.155 130.53 98.3946 124.889 90.2281C120.011 83.1666 106.949 70.6285 104.117 69.0953" fill="#1A222D"/>
</g>
<defs>
<clipPath id="clip0_357_19">
<rect width="125" height="104.492" fill="white" transform="translate(38 45)"/>
</clipPath>
</defs>
</svg>
