<svg width="200" height="195" viewBox="0 0 200 195" fill="none" xmlns="http://www.w3.org/2000/svg">
<g clip-path="url(#clip0_352_2)">
<path d="M166.797 0H33.2031C14.8655 0 0 14.8418 0 33.15V161.538C0 179.846 14.8655 194.688 33.2031 194.688H166.797C185.134 194.688 200 179.846 200 161.538V33.15C200 14.8418 185.134 0 166.797 0Z" fill="#001E36"/>
<path d="M45.0313 136.527V50.9311C45.0313 50.3065 45.2997 49.994 45.8367 49.9935L46.6859 49.9912L48.1375 49.9756L50.1547 49.9358L56.9125 49.793L64.1586 49.6589C66.707 49.6147 69.2336 49.5923 71.7383 49.5918C78.5352 49.5918 84.2596 50.4402 88.9117 52.1369C93.1087 53.5532 96.9362 55.8871 100.115 58.9682C102.81 61.6384 104.893 64.8606 106.22 68.4124C107.474 71.8689 108.11 75.5187 108.098 79.1951C108.098 86.3405 106.443 92.2344 103.134 96.877C99.8968 101.406 95.3818 104.87 90.1648 106.827L89.7172 106.99C84.2695 109.019 78.2367 109.752 71.6203 109.798L70.5922 109.802L69.0664 109.794L68.2969 109.783L67.4391 109.763L66.9219 109.742L66.6078 109.726L65.8352 109.698L64.8906 109.678L63.4688 109.668L63.1523 109.667V136.393C63.1759 136.556 63.1608 136.723 63.1085 136.88C63.0561 137.037 62.9678 137.18 62.8506 137.297C62.7334 137.414 62.5905 137.502 62.4332 137.555C62.2759 137.607 62.1086 137.622 61.9445 137.598H45.9711C45.344 137.599 45.0307 137.242 45.0313 136.527ZM63.1531 66.0677V93.9855C64.3146 94.0755 65.3875 94.1202 66.3719 94.1197H70.8C73.8529 94.1092 76.8881 93.6554 79.8102 92.7726L80.393 92.5909C83.0515 91.8031 85.427 90.2684 87.2359 88.1698C88.9172 86.1902 89.788 83.4623 89.8484 79.9861L89.8523 79.5968C89.9227 77.0057 89.2477 74.4488 87.9063 72.2297C86.497 70.0831 84.4592 68.4224 82.0703 67.4741C78.9517 66.2633 75.6202 65.6939 72.2758 65.8002L70.5742 65.8049L69.5008 65.8142L68.4766 65.8275L67.0312 65.8556L65.9766 65.8852L65.4289 65.9055L64.6969 65.9398L64.0734 65.978L63.718 66.0061L63.4109 66.0358L63.2758 66.0514L63.1531 66.0677ZM159.973 88.9093C157.633 87.7088 155.15 86.8068 152.584 86.2245L151.991 86.0966C149.168 85.45 146.286 85.0937 143.39 85.0334L142.666 85.0249C140.969 84.9788 139.274 85.182 137.635 85.6278C136.592 85.8602 135.665 86.4531 135.018 87.3017C134.58 87.981 134.348 88.7716 134.348 89.5793C134.372 90.3625 134.655 91.1157 135.152 91.7219C135.865 92.5532 136.721 93.2499 137.68 93.7788L137.97 93.9325C139.883 94.9607 141.854 95.8774 143.873 96.6781C148.376 98.1839 152.678 100.231 156.686 102.773C159.416 104.493 161.676 106.864 163.261 109.672C164.593 112.331 165.261 115.272 165.206 118.244C165.286 122.17 164.162 126.026 161.986 129.296C159.656 132.615 156.419 135.196 152.661 136.729C148.726 138.456 143.893 139.348 138.163 139.406L137.568 139.41C134.016 139.445 130.469 139.134 126.977 138.483L126.23 138.338C123.291 137.8 120.429 136.9 117.711 135.659C117.438 135.518 117.207 135.307 117.042 135.048C116.877 134.789 116.783 134.491 116.772 134.184V119.584C116.756 119.443 116.779 119.299 116.838 119.169C116.897 119.04 116.99 118.928 117.108 118.847C117.223 118.782 117.355 118.753 117.487 118.765C117.619 118.777 117.744 118.829 117.845 118.914C121.055 120.804 124.541 122.182 128.176 123C131.38 123.802 134.667 124.229 137.97 124.273C141.1 124.273 143.403 123.871 144.88 123.067C145.546 122.762 146.11 122.271 146.503 121.653C146.896 121.035 147.101 120.316 147.094 119.584C147.094 118.425 146.423 117.309 145.081 116.236C144.519 115.786 143.712 115.298 142.662 114.769L142.159 114.523L141.623 114.271L141.342 114.143L140.753 113.883L140.446 113.75L139.805 113.482L139.472 113.345L138.78 113.068L138.42 112.928L137.676 112.642L136.897 112.351C132.683 110.888 128.689 108.86 125.023 106.323C122.4 104.502 120.241 102.094 118.717 99.2903C117.398 96.6505 116.731 93.734 116.772 90.7844C116.764 87.2401 117.739 83.7627 119.589 80.738C121.698 77.4074 124.727 74.7554 128.31 73.1033C132.245 71.1398 137.164 70.1573 143.068 70.1557C146.526 70.128 149.98 70.3744 153.399 70.8928C155.875 71.2066 158.295 71.8602 160.591 72.835C160.961 72.9411 161.259 73.2133 161.396 73.5721C161.488 73.8989 161.532 74.2367 161.53 74.5768V88.1059C161.55 88.4257 161.396 88.7322 161.128 88.9093C160.949 88.9983 160.751 89.0446 160.551 89.0446C160.35 89.0446 160.153 88.9983 159.973 88.9093Z" fill="#31A8FF"/>
</g>
<defs>
<clipPath id="clip0_352_2">
<rect width="200" height="195" rx="30" fill="white"/>
</clipPath>
</defs>
</svg>
