<svg width="200" height="195" viewBox="0 0 200 195" fill="none" xmlns="http://www.w3.org/2000/svg">
<rect width="200" height="195" rx="30" fill="black"/>
<g clip-path="url(#clip0_357_41)">
<mask id="mask0_357_41" style="mask-type:luminance" maskUnits="userSpaceOnUse" x="38" y="35" width="125" height="125">
<path d="M38 35H163V160H38V35Z" fill="white"/>
</mask>
<g mask="url(#mask0_357_41)">
<path fill-rule="evenodd" clip-rule="evenodd" d="M76.65 35.0862C86.8375 34.3753 95.8219 41.4612 97.1422 51.2503C98.3922 60.5472 92.025 69.5315 82.4625 71.6409C80.064 72.1722 77.4078 72.0237 74.8687 72.344C68.8687 73.0472 63.2828 75.7815 59.025 80.0706L58.9703 80.094H58.9234L58.8844 80.055L58.8687 80.0081L58.8922 79.9143C58.9196 79.8781 58.9359 79.8347 58.939 79.7893C58.8609 71.055 58.8453 62.3284 58.8609 53.594C58.8844 43.9065 66.5328 35.805 76.65 35.0784V35.0862Z" fill="white"/>
<path fill-rule="evenodd" clip-rule="evenodd" d="M77.727 116.055C64.7661 115.938 55.477 103.188 59.9926 91.2504C61.2577 87.9512 63.4125 85.0671 66.2176 82.9185C69.0227 80.7698 72.3684 79.4406 75.8833 79.0785C78.102 78.8441 80.7583 78.9066 82.8911 78.516C93.852 76.4848 102.321 68.0941 104.024 57.4223C104.407 55.0629 104.204 52.2348 104.766 49.7269C107.352 38.1019 120.68 31.5785 131.868 36.8363C134.679 38.1202 137.128 40.081 138.996 42.5433C140.864 45.0055 142.092 47.8924 142.571 50.9457C142.766 52.2113 142.836 53.7816 142.766 55.6566C141.5 89.3441 112.727 116.321 77.727 116.032M94.0551 121.399C93.9997 121.378 93.9549 121.336 93.9301 121.282V121.25L93.938 121.219C93.938 121.204 93.938 121.196 93.9536 121.188L93.9848 121.172C106.955 118.299 118.899 111.953 128.54 102.813C128.711 102.649 128.875 102.657 129.024 102.844C130.579 104.907 132.211 107.118 133.516 109.227C139.676 119.095 142.893 130.516 142.79 142.149C142.305 151.985 134.086 159.907 123.704 159.961C114.524 160.024 106.446 153.758 104.711 144.993C104.29 142.914 104.415 140.047 104.071 137.852C103.59 134.603 102.468 131.482 100.77 128.671C99.0718 125.86 96.8319 123.415 94.1801 121.477L94.0551 121.399ZM74.6255 159.688C66.8208 158.336 60.5473 152.274 59.1489 144.735C58.9223 143.172 58.8286 141.602 58.8598 140.024V115.102C58.8598 115.016 58.8833 115 58.9458 115.055C64.0473 119.586 69.4145 122.36 76.4145 122.813L78.2895 122.875C87.4067 123.172 95.1333 129.141 96.9145 137.821C99.5473 150.657 87.9301 162.016 74.6176 159.696H74.6255V159.688Z" fill="white"/>
</g>
</g>
<defs>
<clipPath id="clip0_357_41">
<rect width="125" height="125" fill="white" transform="translate(38 35)"/>
</clipPath>
</defs>
</svg>
