<svg width="200" height="195" viewBox="0 0 200 195" fill="none" xmlns="http://www.w3.org/2000/svg">
<g clip-path="url(#clip0_352_5)">
<path d="M166.797 0H33.2031C14.8655 0 0 14.8418 0 33.15V161.538C0 179.846 14.8655 194.688 33.2031 194.688H166.797C185.134 194.688 200 179.846 200 161.538V33.15C200 14.8418 185.134 0 166.797 0Z" fill="#001E36"/>
<path d="M105.034 137.599H52.1725C51.2772 137.599 50.8301 137.107 50.8311 136.124V51.0662C50.8076 50.9024 50.8226 50.7354 50.875 50.5785C50.9273 50.4216 51.0155 50.2789 51.1326 50.1619C51.2498 50.0449 51.3926 49.9567 51.5497 49.9044C51.7069 49.852 51.8741 49.8369 52.0381 49.8603H68.4069C68.5345 49.8423 68.6645 49.8542 68.7867 49.895C68.9089 49.9358 69.0199 50.0045 69.111 50.0955C69.202 50.1865 69.2707 50.2974 69.3114 50.4194C69.3522 50.5414 69.364 50.6712 69.3459 50.7986V120.722H107.851C108.656 120.722 108.969 121.123 108.791 121.927L106.376 136.393C106.37 136.591 106.319 136.784 106.225 136.959C106.132 137.133 106 137.283 105.839 137.398C105.59 137.527 105.314 137.596 105.034 137.599M118.315 71.0248H132.94C133.755 71.0326 134.468 71.5786 134.683 72.3648C135.003 72.9515 135.23 73.5841 135.355 74.24C135.542 75.1026 135.676 75.9734 135.757 76.8522C135.845 77.7897 135.89 78.7944 135.891 79.8661C138.399 76.9502 141.423 74.5208 144.813 72.6995C148.621 70.6439 152.896 69.6056 157.224 69.6855C157.388 69.6622 157.555 69.6773 157.712 69.7296C157.87 69.782 158.012 69.8702 158.13 69.9872C158.247 70.1042 158.335 70.2468 158.387 70.4038C158.44 70.5607 158.455 70.7277 158.431 70.8914V87.0998C158.431 87.7254 157.984 88.0379 157.09 88.0374C151.685 87.7035 146.279 88.668 141.325 90.8501C139.642 91.578 138.115 92.6242 136.83 93.9311V136.394C136.83 137.198 136.473 137.599 135.757 137.599H119.523C119.34 137.625 119.154 137.609 118.98 137.551C118.805 137.493 118.646 137.395 118.516 137.265C118.386 137.135 118.288 136.976 118.23 136.802C118.172 136.628 118.155 136.442 118.181 136.26V90.18C118.181 89.0584 118.174 87.8996 118.159 86.7036L118.132 84.8831C118.127 84.5747 118.121 84.2643 118.114 83.9517C118.08 82.323 118.033 80.6946 117.975 79.0666L117.912 77.4551C117.853 75.6148 117.674 73.7803 117.376 71.9631C117.345 71.8417 117.344 71.7145 117.373 71.5924C117.402 71.4704 117.46 71.3573 117.543 71.263C117.626 71.1686 117.73 71.0959 117.848 71.0511C117.965 71.0064 118.092 70.9909 118.216 71.0061L118.315 71.0248Z" fill="#31A8FF"/>
</g>
<defs>
<clipPath id="clip0_352_5">
<rect width="200" height="195" rx="30" fill="white"/>
</clipPath>
</defs>
</svg>
