<svg width="200" height="195" viewBox="0 0 200 195" fill="none" xmlns="http://www.w3.org/2000/svg">
<rect width="200" height="195" rx="30" fill="white"/>
<g clip-path="url(#clip0_357_17)">
<path d="M154.789 85.856C156.206 81.5891 156.696 77.069 156.226 72.5975C155.757 68.1261 154.339 63.8064 152.067 59.9268C145.154 47.8951 131.262 41.7061 117.694 44.6143C113.937 40.4355 109.147 37.3188 103.805 35.5771C98.4622 33.8355 92.7555 33.5302 87.2578 34.6919C81.76 35.8536 76.6647 38.4415 72.4835 42.1956C68.3024 45.9497 65.1826 50.7378 63.4376 56.0792C59.0322 56.9826 54.8704 58.8159 51.2303 61.4566C47.5901 64.0972 44.5555 67.4844 42.3292 71.3917C35.3419 83.4044 36.9283 98.5567 46.2516 108.862C44.8296 113.127 44.3346 117.647 44.7999 122.118C45.2651 126.59 46.6798 130.91 48.9493 134.791C55.8702 146.827 69.7716 153.016 83.3468 150.104C86.3315 153.465 89.9988 156.15 94.104 157.981C98.2091 159.812 102.658 160.746 107.152 160.721C121.059 160.733 133.38 151.755 137.628 138.513C142.033 137.608 146.194 135.774 149.834 133.134C153.474 130.493 156.508 127.107 158.736 123.201C165.639 111.21 164.046 96.1392 154.789 85.856ZM107.152 152.427C101.601 152.435 96.2246 150.49 91.9645 146.931L92.714 146.506L117.943 131.943C118.571 131.575 119.092 131.05 119.456 130.419C119.82 129.788 120.013 129.074 120.017 128.346V92.775L130.684 98.9449C130.79 98.9991 130.864 99.1011 130.883 99.2198V128.696C130.856 141.791 120.247 152.399 107.152 152.427ZM56.1437 130.645C53.36 125.838 52.3605 120.203 53.3209 114.732L54.0699 115.182L79.3248 129.745C79.9497 130.112 80.6611 130.305 81.3856 130.305C82.1101 130.305 82.8215 130.112 83.4464 129.745L114.296 111.96V124.274C114.294 124.338 114.276 124.401 114.246 124.457C114.216 124.513 114.173 124.562 114.122 124.599L88.5675 139.337C77.2115 145.879 62.7032 141.989 56.1437 130.645ZM49.4986 75.6885C52.3018 70.8508 56.7263 67.1608 61.9889 65.272V95.2476C61.9795 95.9718 62.1646 96.6853 62.5248 97.3137C62.8851 97.942 63.4074 98.4622 64.0372 98.8199L94.7374 116.531L84.0709 122.701C84.0132 122.731 83.9489 122.747 83.8836 122.747C83.8184 122.747 83.7541 122.731 83.6964 122.701L58.192 107.988C46.8585 101.419 42.9718 86.9219 49.4986 75.564V75.6885ZM137.129 96.0474L106.328 78.1617L116.97 72.0167C117.028 71.986 117.092 71.97 117.157 71.97C117.223 71.97 117.287 71.986 117.345 72.0167L142.849 86.7549C146.749 89.005 149.928 92.318 152.015 96.3071C154.103 100.296 155.012 104.797 154.638 109.283C154.263 113.77 152.62 118.058 149.9 121.645C147.18 125.233 143.496 127.973 139.277 129.545V99.5694C139.255 98.8464 139.045 98.1416 138.669 97.5241C138.292 96.9066 137.761 96.3977 137.129 96.0474ZM147.745 80.0855L146.995 79.6353L121.791 64.9473C121.162 64.5784 120.446 64.384 119.717 64.384C118.988 64.384 118.273 64.5784 117.644 64.9473L86.8185 82.7335V70.4185C86.8121 70.3559 86.8227 70.2928 86.849 70.2357C86.8754 70.1786 86.9166 70.1296 86.9684 70.0938L112.473 55.3804C116.382 53.1286 120.851 52.0363 125.358 52.2313C129.865 52.4262 134.223 53.9004 137.923 56.4813C141.622 59.0623 144.511 62.6433 146.25 66.8056C147.989 70.9679 148.508 75.5394 147.744 79.9854L147.745 80.0855ZM80.9986 101.918L70.3321 95.7725C70.2788 95.7403 70.2332 95.6967 70.1987 95.6449C70.1641 95.5931 70.1413 95.5343 70.1319 95.4727V66.0718C70.1379 61.5615 71.4276 57.1461 73.8505 53.3418C76.2734 49.5375 79.7292 46.5015 83.8139 44.5889C87.8985 42.6762 92.4433 41.9659 96.9168 42.541C101.39 43.1161 105.608 44.9529 109.076 47.8365L108.326 48.2613L83.0968 62.8243C82.4691 63.1928 81.9479 63.7181 81.5845 64.3487C81.221 64.9793 81.0277 65.6936 81.0235 66.4214L80.9986 101.918ZM86.7936 89.4273L100.533 81.5088L114.296 89.4278V105.265L100.583 113.184L86.8189 105.265L86.7936 89.4273Z" fill="black"/>
</g>
<defs>
<clipPath id="clip0_357_17">
<rect width="125" height="126.953" fill="white" transform="translate(38 34)"/>
</clipPath>
</defs>
</svg>
