<svg width="200" height="195" viewBox="0 0 200 195" fill="none" xmlns="http://www.w3.org/2000/svg">
<g clip-path="url(#clip0_352_11)">
<path d="M166.797 0H33.2031C14.8655 0 0 14.8418 0 33.15V161.538C0 179.846 14.8655 194.688 33.2031 194.688H166.797C185.134 194.688 200 179.846 200 161.538V33.15C200 14.8418 185.134 0 166.797 0Z" fill="#49021F"/>
<path d="M72.6359 50.931V136.258C72.6359 137.152 72.2333 137.598 71.4281 137.598H55.1938C54.4771 137.598 54.1195 137.152 54.1211 136.258V50.931C54.1211 50.217 54.5234 49.8598 55.3281 49.8593H71.5625C71.699 49.84 71.8381 49.8506 71.9701 49.8904C72.1021 49.9302 72.2238 49.9982 72.3268 50.0898C72.4298 50.1813 72.5115 50.2941 72.5664 50.4204C72.6213 50.5467 72.6479 50.6834 72.6445 50.821L72.6359 50.931ZM121.531 138.929L120.667 138.938C114.492 139.032 108.373 137.751 102.756 135.187C97.5233 132.769 93.1489 128.822 90.2117 123.868C87.244 118.947 85.7242 112.813 85.6524 105.468L85.65 104.914C85.5996 98.7661 87.1733 92.7135 90.2125 87.3664C93.2588 82.0658 97.7017 77.7002 103.059 74.7436L103.495 74.5065C109.307 71.2919 116.328 69.6845 124.559 69.6845L124.732 69.6853L125.117 69.6939L125.553 69.7111L126.04 69.736L126.577 69.7695L127.163 69.8124L128.489 69.9209L128.852 69.9521V43.5647C128.852 42.9402 129.12 42.6274 129.656 42.6263H146.562C146.671 42.6107 146.783 42.6207 146.887 42.6555C146.992 42.6903 147.087 42.7491 147.165 42.827C147.243 42.905 147.302 43.0001 147.337 43.1047C147.372 43.2093 147.382 43.3206 147.366 43.4297V122.596C147.372 124.25 147.439 125.903 147.568 127.552L147.695 129.279L147.806 130.886L147.903 132.374C147.92 132.652 147.852 132.929 147.708 133.168C147.565 133.407 147.352 133.597 147.098 133.714C142.737 135.53 138.195 136.876 133.548 137.732C129.583 138.463 125.564 138.863 121.532 138.929M128.852 122.328V85.7588C128.127 85.5626 127.387 85.4282 126.639 85.3571C125.725 85.2649 124.807 85.2201 123.888 85.2229C120.632 85.1909 117.415 85.9249 114.497 87.3664C111.655 88.7779 109.228 90.901 107.453 93.5283C105.619 96.2069 104.702 99.7343 104.702 104.111C104.637 107.03 105.115 109.937 106.111 112.683C106.922 114.896 108.204 116.907 109.868 118.577C111.461 120.114 113.39 121.261 115.503 121.926C117.735 122.647 120.067 123.009 122.413 122.998C123.664 122.998 124.827 122.953 125.901 122.863C126.758 122.799 127.607 122.658 128.438 122.442L128.852 122.328Z" fill="#FF3366"/>
</g>
<defs>
<clipPath id="clip0_352_11">
<rect width="200" height="195" rx="30" fill="white"/>
</clipPath>
</defs>
</svg>
