<svg width="200" height="195" viewBox="0 0 200 195" fill="none" xmlns="http://www.w3.org/2000/svg">
<g clip-path="url(#clip0_352_8)">
<path d="M166.797 0H33.2031C14.8655 0 0 14.8418 0 33.15V161.538C0 179.846 14.8655 194.688 33.2031 194.688H166.797C185.134 194.688 200 179.846 200 161.538V33.15C200 14.8418 185.134 0 166.797 0Z" fill="#330000"/>
<path d="M96.9158 116.835H65.9236L59.6173 136.392C59.5315 136.748 59.3237 137.064 59.0298 137.284C58.7359 137.504 58.3742 137.615 58.0072 137.597H42.3095C41.4147 137.597 41.1017 137.106 41.3705 136.123L68.204 58.9672C68.4723 58.1638 68.7405 57.2486 69.0087 56.2216C69.3603 54.4339 69.54 52.618 69.5455 50.7967C69.5272 50.6693 69.5389 50.5394 69.5796 50.4173C69.6203 50.2952 69.689 50.1843 69.7801 50.0932C69.8712 50.0022 69.9823 49.9336 70.1045 49.8928C70.2268 49.8521 70.3569 49.8403 70.4845 49.8584H91.8173C92.4423 49.8584 92.8001 50.082 92.8908 50.5292L123.346 136.257C123.614 137.152 123.346 137.599 122.542 137.597H105.099C104.8 137.63 104.499 137.553 104.252 137.381C104.005 137.208 103.83 136.952 103.758 136.66L96.9158 116.835ZM70.7533 99.957H91.9517L91.6494 98.961L91.1642 97.3838L90.8181 96.2762L90.2658 94.5321L89.0915 90.8607L88.0587 87.6057L85.3767 79.1271C84.7091 77.0195 84.0685 74.9034 83.4548 72.7795L82.9642 71.0557L82.3908 69.0175L81.5158 65.8585L81.3517 65.2634H81.2181C80.5466 68.4786 79.7291 71.6617 78.7681 74.8028L76.7775 81.1957L75.6822 84.7275L74.5767 88.303C74.3772 88.9489 74.178 89.5874 73.979 90.2187L73.3853 92.0892L72.7947 93.9159L72.2072 95.6974L71.6228 97.4345C71.429 98.0065 71.2356 98.5707 71.0423 99.1271L70.7533 99.957ZM141.457 64.0575C140.089 64.1122 138.724 63.878 137.453 63.3702C136.181 62.8624 135.031 62.0924 134.078 61.1107C133.128 60.0858 132.39 58.8837 131.907 57.5735C131.423 56.2632 131.204 54.8705 131.26 53.4753C131.212 52.094 131.455 50.718 131.976 49.4371C132.496 48.1562 133.281 46.9993 134.279 46.0419C136.205 44.1961 138.77 43.1632 141.439 43.1582L141.725 43.1613C144.945 43.1613 147.473 44.1212 149.306 46.0411C150.232 47.0389 150.951 48.2091 151.423 49.4848C151.895 50.7604 152.11 52.1164 152.056 53.4753C152.113 54.8762 151.887 56.2742 151.392 57.586C150.896 58.8979 150.141 60.0968 149.172 61.1115C148.194 62.0739 147.033 62.8312 145.757 63.3389C144.481 63.8466 143.117 64.0944 141.744 64.0677L141.457 64.0575ZM132.199 136.257V72.2288C132.199 71.4249 132.557 71.0229 133.273 71.0229H149.776C150.491 71.0229 150.849 71.4249 150.849 72.2288V136.257C150.849 137.152 150.492 137.599 149.776 137.597H133.407C132.645 137.597 132.243 137.197 132.203 136.395L132.199 136.257Z" fill="#FF9A00"/>
</g>
<defs>
<clipPath id="clip0_352_8">
<rect width="200" height="195" rx="30" fill="white"/>
</clipPath>
</defs>
</svg>
