<svg width="200" height="195" viewBox="0 0 200 195" fill="none" xmlns="http://www.w3.org/2000/svg">
<rect width="200" height="195" rx="30" fill="#1E1E1E"/>
<g clip-path="url(#clip0_357_11)">
<path d="M78.8333 160.001C90.3333 160.001 99.6667 150.667 99.6667 139.167V118.334H78.8333C67.3333 118.334 58 127.667 58 139.167C58 150.667 67.3333 160.001 78.8333 160.001Z" fill="#0ACF83"/>
<path d="M58 97.4993C58 85.9993 67.3333 76.666 78.8333 76.666H99.6667V118.333H78.8333C67.3333 118.333 58 108.999 58 97.4993Z" fill="#A259FF"/>
<path d="M58 55.8333C58 44.3333 67.3333 35 78.8333 35H99.6667V76.6667H78.8333C67.3333 76.6667 58 67.3333 58 55.8333Z" fill="#F24E1E"/>
<path d="M99.668 35H120.501C132.001 35 141.335 44.3333 141.335 55.8333C141.335 67.3333 132.001 76.6667 120.501 76.6667H99.668V35Z" fill="#FF7262"/>
<path d="M141.335 97.4993C141.335 108.999 132.001 118.333 120.501 118.333C109.001 118.333 99.668 108.999 99.668 97.4993C99.668 85.9993 109.001 76.666 120.501 76.666C132.001 76.666 141.335 85.9993 141.335 97.4993Z" fill="#1ABCFE"/>
</g>
<defs>
<clipPath id="clip0_357_11">
<rect width="83.3333" height="125" fill="white" transform="translate(58 35)"/>
</clipPath>
</defs>
</svg>
